<svg xmlns="http://www.w3.org/2000/svg" width="393.9102783203125" height="411.6705017089844" viewBox="-95.74742889404297 -116.12366485595703 393.9102783203125 411.6705017089844"><title>Neo4j Graph Visualization</title><desc>Created using Neo4j (http://www.neo4j.com/)</desc><g class="layer relationships"><g class="relationship" transform="translate(99.60105854453295 -87.1236621839614) rotate(385.4872325487079)"><path class="outline" fill="#A5ABB6" stroke="none" d="M 24.018736134675446,-6.953439040707552 L 24.277555179777966,-5.987513214418485 A 107.79668643024272 107.79668643024272 0 0 1 40.05065971968544,-8.976318061139054 L 39.93816339620122,-9.969970202083019 A 108.79668643024272 108.79668643024272 0 0 0 24.018736134675446,-6.953439040707552 Z M 60.99945916313311,-10.302325896908414 L 60.91837150480704,-9.305618923085518 A 107.79668643024272 107.79668643024272 0 0 1 76.77792792455422,-6.815990154074713 L 76.0932908142956,-3.8951560219719097 L 83.70731375117053,-5.705309252155089 L 77.69077740489904,-10.71043566354512 L 77.00614029464042,-7.789601531442315 A 108.79668643024272 108.79668643024272 0 0 0 60.99945916313311,-10.302325896908414"/><text text-anchor="middle" pointer-events="none" font-size="8px" fill="#000000" x="50.46863822194346" y="-7.147114673388614" font-family="sans-serif">road</text></g><g class="relationship" transform="translate(197.1335935348239 -40.62970459813304) rotate(410.6888104677471)"><path class="outline" fill="#A5ABB6" stroke="none" d="M 21.40063509461097,-12.933012701892217 L 21.90063509461097,-12.06698729810778 A 66.38404601148409 66.38404601148409 0 0 1 44.268899331757765,-20.072425386287748 L 44.10585174097484,-21.059043591643743 A 67.38404601148409 67.38404601148409 0 0 0 21.40063509461097,-12.933012701892217 Z M 62.178019705724495,-21.58721852018226 L 62.07287075690412,-20.592762036186116 A 66.38404601148409 66.38404601148409 0 0 1 84.87048834683651,-13.907336381098169 L 83.52478111585519,-11.226091884882914 L 91.351010043169,-11.214226924844308 L 86.6647646548116,-17.48232904271851 L 85.31905742383029,-14.801084546503255 A 67.38404601148409 67.38404601148409 0 0 0 62.178019705724495,-21.58721852018226"/><text text-anchor="middle" pointer-events="none" font-size="8px" fill="#000000" x="53.13874759758352" y="-18.432216779648584" font-family="sans-serif">trek</text></g><g class="relationship" transform="translate(269.1628317237982 47.337771653038644) rotate(499.21978042804517)"><path class="outline" fill="#A5ABB6" stroke="none" d="M 21.40063509461097,12.933012701892217 L 21.90063509461097,12.06698729810778 A 66.72362216869885 66.72362216869885 0 0 0 42.96705789104583,19.86361733084739 L 42.782784497481735,20.846492356689623 A 67.72362216869885 67.72362216869885 0 0 1 21.40063509461097,12.933012701892217 Z M 63.844116573500386,21.460339602787016 L 63.71740051609336,20.46840057200174 A 66.72362216869885 66.72362216869885 0 0 0 85.20215375453716,13.911954309829884 L 83.85601696208847,11.230925452093368 L 91.68224388799715,11.217806603739035 L 86.9970028111354,17.48665945347857 L 85.65086601868671,14.805630595742056 A 67.72362216869885 67.72362216869885 0 0 1 63.844116573500386,21.460339602787016"/><text text-anchor="middle" pointer-events="none" font-size="8px" fill="#000000" x="53.30399836525299" y="24.47772352935887" transform="rotate(180 53.30399836525299 21.47772352935887)" font-family="sans-serif">road</text></g><g class="relationship" transform="translate(182.8213964281125 121.81369776689218) rotate(474.4421770246712)"><path class="outline" fill="#A5ABB6" stroke="none" d="M 25 0.5 L 48.26197424872185 0.5 L 48.26197424872185 -0.5 L 25 -0.5 Z M 66.26197424872186 0.5 L 89.5239484974437 0.5 L 89.5239484974437 3.5 L 96.5239484974437 0 L 89.5239484974437 -3.5 L 89.5239484974437 -0.5 L 66.26197424872186 -0.5 Z"/><text text-anchor="middle" pointer-events="none" font-size="8px" fill="#000000" x="57.26197424872185" y="3" transform="rotate(180 57.26197424872185 0)" font-family="sans-serif">trek</text></g><g class="relationship" transform="translate(99.60105854453295 -87.1236621839614) rotate(385.4872325487079)"><path class="outline" fill="#A5ABB6" stroke="none" d="M 24.018736134675446,6.953439040707552 L 24.277555179777966,5.987513214418485 A 107.79668643024272 107.79668643024272 0 0 0 41.53537224883274,9.134003725747434 L 41.43664919221148,10.129118672922559 A 108.79668643024272 108.79668643024272 0 0 1 24.018736134675446,6.953439040707552 Z M 59.49669788743865,10.414113485165174 L 59.42942279386066,9.416379020598526 A 107.79668643024272 107.79668643024272 0 0 0 76.77792792455422,6.815990154074713 L 76.0932908142956,3.8951560219719097 L 83.70731375117053,5.705309252155089 L 77.69077740489904,10.71043566354512 L 77.00614029464042,7.789601531442315 A 108.79668643024272 108.79668643024272 0 0 1 59.49669788743865,10.414113485165174"/><text text-anchor="middle" pointer-events="none" font-size="8px" fill="#000000" x="50.46863822194345" y="13.147114673388614" font-family="sans-serif">trek</text></g><g class="relationship" transform="translate(197.1335935348239 -40.62970459813304) rotate(410.6888104677471)"><path class="outline" fill="#A5ABB6" stroke="none" d="M 25 0.5 L 31.84735708914807 0.5 L 31.84735708914807 -0.5 L 25 -0.5 Z M 74.84735708914806 0.5 L 81.69471417829614 0.5 L 81.69471417829614 3.5 L 88.69471417829614 0 L 81.69471417829614 -3.5 L 81.69471417829614 -0.5 L 74.84735708914806 -0.5 Z"/><text text-anchor="middle" pointer-events="none" font-size="8px" fill="#000000" x="53.34735708914807" y="3" font-family="sans-serif">twowheeler</text></g><g class="relationship" transform="translate(197.1335935348239 -40.62970459813304) rotate(410.6888104677471)"><path class="outline" fill="#A5ABB6" stroke="none" d="M 21.40063509461097,12.933012701892217 L 21.90063509461097,12.06698729810778 A 66.38404601148409 66.38404601148409 0 0 0 42.80288040210029,19.813232349963187 L 42.617748906859305,20.795946107610774 A 67.38404601148409 67.38404601148409 0 0 1 21.40063509461097,12.933012701892217 Z M 63.678947962136036,21.41147808626735 L 63.55152477563994,20.419629644446132 A 66.38404601148409 66.38404601148409 0 0 0 84.87048834683651,13.907336381098169 L 83.52478111585519,11.226091884882914 L 91.351010043169,11.214226924844308 L 86.6647646548116,17.48232904271851 L 85.31905742383029,14.801084546503255 A 67.38404601148409 67.38404601148409 0 0 1 63.678947962136036,21.41147808626735"/><text text-anchor="middle" pointer-events="none" font-size="8px" fill="#000000" x="53.138747597583524" y="24.432216779648584" font-family="sans-serif">road</text></g><g class="relationship" transform="translate(269.1628317237982 47.337771653038644) rotate(499.21978042804517)"><path class="outline" fill="#A5ABB6" stroke="none" d="M 25 0.5 L 44.512075517900705 0.5 L 44.512075517900705 -0.5 L 25 -0.5 Z M 62.512075517900705 0.5 L 82.02415103580141 0.5 L 82.02415103580141 3.5 L 89.02415103580141 0 L 82.02415103580141 -3.5 L 82.02415103580141 -0.5 L 62.512075517900705 -0.5 Z"/><text text-anchor="middle" pointer-events="none" font-size="8px" fill="#000000" x="53.512075517900705" y="3" transform="rotate(180 53.512075517900705 0)" font-family="sans-serif">trek</text></g><g class="relationship" transform="translate(269.1628317237982 47.337771653038644) rotate(499.21978042804517)"><path class="outline" fill="#A5ABB6" stroke="none" d="M 21.40063509461097,-12.933012701892217 L 21.90063509461097,-12.06698729810778 A 66.72362216869885 66.72362216869885 0 0 1 32.44791538173598,-16.984620602053624 L 32.105989538148805,-17.924347539779262 A 67.72362216869885 67.72362216869885 0 0 0 21.40063509461097,-12.933012701892217 Z M 74.67297899071833,-19.164992203459818 L 74.38636507093409,-18.20694603495545 A 66.72362216869885 66.72362216869885 0 0 1 85.20215375453716,-13.911954309829884 L 83.85601696208847,-11.230925452093368 L 91.68224388799715,-11.217806603739035 L 86.9970028111354,-17.48665945347857 L 85.65086601868671,-14.805630595742056 A 67.72362216869885 67.72362216869885 0 0 0 74.67297899071833,-19.164992203459818"/><text text-anchor="middle" pointer-events="none" font-size="8px" fill="#000000" x="53.303998365252994" y="-18.47772352935887" transform="rotate(180 53.303998365252994 -21.47772352935887)" font-family="sans-serif">twowheeler</text></g><g class="relationship" transform="translate(99.60105854453295 -87.1236621839614) rotate(448.43086530569803)"><path class="outline" fill="#A5ABB6" stroke="none" d="M 21.40063509461097,12.933012701892217 L 21.90063509461097,12.06698729810778 A 64.34407716152647 64.34407716152647 0 0 0 43.281776534287026,19.776155793241927 L 43.1140703891822,20.76199282282343 A 65.34407716152647 65.34407716152647 0 0 1 21.40063509461097,12.933012701892217 Z M 61.18670556483645,21.299051163572457 L 61.0778352249604,20.3049952048381 A 64.34407716152647 64.34407716152647 0 0 0 82.87902468507994,13.879061321442315 L 81.53594763989715,11.196498358396893 L 89.36218443971639,11.19230870985668 L 84.669794078657,17.45581193883621 L 83.32671703347421,14.77324897579079 A 65.34407716152647 65.34407716152647 0 0 1 61.18670556483645,21.299051163572457"/><text text-anchor="middle" pointer-events="none" font-size="8px" fill="#000000" x="52.14657459379284" y="24.15884675501141" font-family="sans-serif">trek</text></g><g class="relationship" transform="translate(102.66021778819788 24.55132106154143) rotate(518.1082843264486)"><path class="outline" fill="#A5ABB6" stroke="none" d="M 24.018736134675446,-6.953439040707552 L 24.277555179777966,-5.987513214418485 A 138.68520535510046 138.68520535510046 0 0 1 36.931638035078336,-8.751975563497894 L 36.764062196653114,-9.737834751402602 A 139.68520535510046 139.68520535510046 0 0 0 24.018736134675446,-6.953439040707552 Z M 79.74296611450919,-10.335270495635143 L 79.60285794439108,-9.345134292546817 A 138.68520535510046 138.68520535510046 0 0 1 92.32889241280505,-6.933472687548351 L 91.63328184502669,-4.015232475023844 L 99.25405466999194,-5.796754731486279 L 93.25637316984285,-10.824459637581025 L 92.56076260206449,-7.90621942505652 A 139.68520535510046 139.68520535510046 0 0 0 79.74296611450919,-10.335270495635143"/><text text-anchor="middle" pointer-events="none" font-size="8px" fill="#000000" x="58.237346294859655" y="-8.199651650007723" transform="rotate(180 58.237346294859655 -11.199651650007723)" font-family="sans-serif">twowheeler</text></g><g class="relationship" transform="translate(-12.001697763524 70.62585869634744) rotate(423.6633600486688)"><path class="outline" fill="#A5ABB6" stroke="none" d="M 24.018736134675446,-6.953439040707552 L 24.277555179777966,-5.987513214418485 A 113.16072502259699 113.16072502259699 0 0 1 30.576682827106357,-7.483614360507232 L 30.373529099154027,-8.462761215079652 A 114.16072502259699 114.16072502259699 0 0 0 24.018736134675446,-6.953439040707552 Z M 73.3004853725226,-9.124674211152211 L 73.12761699423068,-8.139729276759056 A 113.16072502259699 113.16072502259699 0 0 1 79.46987732412946,-6.838552246352695 L 78.78313274877291,-3.918212901650035 L 86.39845989099508,-5.7228714613045355 L 80.38553675793818,-10.732338039289575 L 79.69879218258164,-7.811998694586915 A 114.16072502259699 114.16072502259699 0 0 0 73.3004853725226,-9.124674211152211"/><text text-anchor="middle" pointer-events="none" font-size="8px" fill="#000000" x="51.81332063445489" y="-7.329861749997065" font-family="sans-serif">twowheeler</text></g><g class="relationship" transform="translate(37.12509592112071 169.86654819279048) rotate(393.26036740917766)"><path class="outline" fill="#A5ABB6" stroke="none" d="M 24.018736134675446,6.953439040707552 L 24.277555179777966,5.987513214418485 A 119.87658400529246 119.87658400529246 0 0 0 44.558954098555425,9.58968478208402 L 44.46932071291316,10.58565960916465 A 120.87658400529246 120.87658400529246 0 0 1 24.018736134675446,6.953439040707552 Z M 62.5252231953769,10.856310258518718 L 62.465481889212256,9.858096365438811 A 119.87658400529246 119.87658400529246 0 0 0 82.84573480492307,6.865426454281543 L 82.15648001380738,3.945678548567066 L 89.77335571677612,5.743789925964027 L 83.76474119307731,10.758423661900846 L 83.07548640196163,7.838675756186369 A 120.87658400529246 120.87658400529246 0 0 1 62.5252231953769,10.856310258518718"/><text text-anchor="middle" pointer-events="none" font-size="8px" fill="#000000" x="53.49970472744094" y="13.55868745737989" font-family="sans-serif">trek</text></g><g class="relationship" transform="translate(99.60105854453295 -87.1236621839614) rotate(448.43086530569803)"><path class="outline" fill="#A5ABB6" stroke="none" d="M 25 0.5 L 41.85843789921412 0.5 L 41.85843789921412 -0.5 L 25 -0.5 Z M 62.85843789921412 0.5 L 79.71687579842823 0.5 L 79.71687579842823 3.5 L 86.71687579842823 0 L 79.71687579842823 -3.5 L 79.71687579842823 -0.5 L 62.85843789921412 -0.5 Z"/><text text-anchor="middle" pointer-events="none" font-size="8px" fill="#000000" x="52.35843789921412" y="3" font-family="sans-serif">road</text></g><g class="relationship" transform="translate(99.60105854453295 -87.1236621839614) rotate(448.43086530569803)"><path class="outline" fill="#A5ABB6" stroke="none" d="M 21.40063509461097,-12.933012701892217 L 21.90063509461097,-12.06698729810778 A 64.34407716152647 64.34407716152647 0 0 1 23.657001974018666,-13.044767949620756 L 23.18429845501409,-13.92598947859102 A 65.34407716152647 65.34407716152647 0 0 0 21.40063509461097,-12.933012701892217 Z M 81.48723729270807,-15.658558043641477 L 81.067695617193,-14.750821968283667 A 64.34407716152647 64.34407716152647 0 0 1 82.87902468507994,-13.879061321442315 L 81.53594763989715,-11.196498358396893 L 89.36218443971639,-11.19230870985668 L 84.669794078657,-17.45581193883621 L 83.32671703347421,-14.77324897579079 A 65.34407716152647 65.34407716152647 0 0 0 81.48723729270807,-15.658558043641477"/><text text-anchor="middle" pointer-events="none" font-size="8px" fill="#000000" x="52.146574593792835" y="-18.15884675501141" font-family="sans-serif">PublicTransport</text></g><g class="relationship" transform="translate(102.66021778819788 24.55132106154143) rotate(518.1082843264486)"><path class="outline" fill="#A5ABB6" stroke="none" d="M 24.018736134675446,6.953439040707552 L 24.277555179777966,5.987513214418485 A 138.68520535510046 138.68520535510046 0 0 0 49.28776907664898,10.285337287616386 L 49.20928804116207,11.282252894410107 A 139.68520535510046 139.68520535510046 0 0 1 24.018736134675446,6.953439040707552 Z M 67.25962027951762,11.533164683484046 L 67.20887981160718,10.534452810661747 A 138.68520535510046 138.68520535510046 0 0 0 92.32889241280505,6.933472687548351 L 91.63328184502669,4.015232475023844 L 99.25405466999194,5.796754731486279 L 93.25637316984285,10.824459637581025 L 92.56076260206449,7.90621942505652 A 139.68520535510046 139.68520535510046 0 0 1 67.25962027951762,11.533164683484046"/><text text-anchor="middle" pointer-events="none" font-size="8px" fill="#000000" x="58.23734629485968" y="14.199651650007723" transform="rotate(180 58.23734629485968 11.199651650007723)" font-family="sans-serif">trek</text></g><g class="relationship" transform="translate(-12.001697763524 70.62585869634744) rotate(423.6633600486688)"><path class="outline" fill="#A5ABB6" stroke="none" d="M 24.018736134675446,6.953439040707552 L 24.277555179777966,5.987513214418485 A 113.16072502259699 113.16072502259699 0 0 0 42.876512187984495,9.33738807737393 L 42.782051907855355,10.33291670854328 A 114.16072502259699 114.16072502259699 0 0 1 24.018736134675446,6.953439040707552 Z M 60.840201615400694,10.611364681894301 L 60.776480089098854,9.613396963435548 A 113.16072502259699 113.16072502259699 0 0 0 79.46987732412946,6.838552246352695 L 78.78313274877291,3.918212901650035 L 86.39845989099508,5.7228714613045355 L 80.38553675793818,10.732338039289575 L 79.69879218258164,7.811998694586915 A 114.16072502259699 114.16072502259699 0 0 1 60.840201615400694,10.611364681894301"/><text text-anchor="middle" pointer-events="none" font-size="8px" fill="#000000" x="51.81332063445493" y="13.329861749997065" font-family="sans-serif">trek</text></g><g class="relationship" transform="translate(37.12509592112071 169.86654819279048) rotate(393.26036740917766)"><path class="outline" fill="#A5ABB6" stroke="none" d="M 24.018736134675446,-6.953439040707552 L 24.277555179777966,-5.987513214418485 A 119.87658400529246 119.87658400529246 0 0 1 32.241128046914945,-7.832795865130791 L 32.04874043154673,-8.81411487822129 A 120.87658400529246 120.87658400529246 0 0 0 24.018736134675446,-6.953439040707552 Z M 74.99332076410356,-9.457836706279053 L 74.83043212240383,-8.471192246301086 A 119.87658400529246 119.87658400529246 0 0 1 82.84573480492307,-6.865426454281543 L 82.15648001380738,-3.945678548567066 L 89.77335571677612,-5.743789925964027 L 83.76474119307731,-10.758423661900846 L 83.07548640196163,-7.838675756186369 A 120.87658400529246 120.87658400529246 0 0 0 74.99332076410356,-9.457836706279053"/><text text-anchor="middle" pointer-events="none" font-size="8px" fill="#000000" x="53.499704727440935" y="-7.5586874573798895" font-family="sans-serif">twowheeler</text></g><g class="relationship" transform="translate(102.66021778819788 24.55132106154143) rotate(410.5055202494352)"><path class="outline" fill="#A5ABB6" stroke="none" d="M 25 0.5 L 50.519410667098946 0.5 L 50.519410667098946 -0.5 L 25 -0.5 Z M 68.51941066709895 0.5 L 94.03882133419789 0.5 L 94.03882133419789 3.5 L 101.03882133419789 0 L 94.03882133419789 -3.5 L 94.03882133419789 -0.5 L 68.51941066709895 -0.5 Z"/><text text-anchor="middle" pointer-events="none" font-size="8px" fill="#000000" x="59.519410667098946" y="3" font-family="sans-serif">trek</text></g><g class="relationship" transform="translate(102.66021778819788 24.55132106154143) rotate(325.3966268284047)"><path class="outline" fill="#A5ABB6" stroke="none" d="M 25 0.5 L 44.88855467558476 0.5 L 44.88855467558476 -0.5 L 25 -0.5 Z M 62.88855467558476 0.5 L 82.77710935116951 0.5 L 82.77710935116951 3.5 L 89.77710935116951 0 L 82.77710935116951 -3.5 L 82.77710935116951 -0.5 L 62.88855467558476 -0.5 Z"/><text text-anchor="middle" pointer-events="none" font-size="8px" fill="#000000" x="53.88855467558476" y="3" font-family="sans-serif">trek</text></g><g class="relationship" transform="translate(-12.001697763524 70.62585869634744) rotate(477.52581687835755)"><path class="outline" fill="#A5ABB6" stroke="none" d="M 24.018736134675446,-6.953439040707552 L 24.277555179777966,-5.987513214418485 A 128.5374668552474 128.5374668552474 0 0 1 46.73357241618699,-9.91179145114171 L 46.64945743042071,-10.908247505952716 A 129.5374668552474 129.5374668552474 0 0 0 24.018736134675446,-6.953439040707552 Z M 64.70266815868594,-11.169447102182062 L 64.64741643328719,-10.170974645456056 A 128.5374668552474 128.5374668552474 0 0 1 87.20756574715982,-6.898004627736519 L 86.51526800250113,-3.9789767359991886 L 94.13401378532338,-5.769147872155787 L 88.13062940670474,-10.790041816719627 L 87.43833166204605,-7.871013924982297 A 129.5374668552474 129.5374668552474 0 0 0 64.70266815868594,-11.169447102182062"/><text text-anchor="middle" pointer-events="none" font-size="8px" fill="#000000" x="55.67873986522957" y="-7.853817458116225" transform="rotate(180 55.67873986522957 -10.853817458116225)" font-family="sans-serif">trek</text></g><g class="relationship" transform="translate(-66.74743040476034 175.6758361915759) rotate(356.7989485329781)"><path class="outline" fill="#A5ABB6" stroke="none" d="M 21.40063509461097,12.933012701892217 L 21.90063509461097,12.06698729810778 A 56.39832422485672 56.39832422485672 0 0 0 37.99468564153654,18.308516773105595 L 37.780049626515236,19.28521088133794 A 57.39832422485672 57.39832422485672 0 0 1 21.40063509461097,12.933012701892217 Z M 58.83391835855353,19.9545163431064 L 58.68175152669101,18.966161520544723 A 56.39832422485672 56.39832422485672 0 0 0 75.13974276209451,13.759466053202418 L 73.80779118910687,11.071361701207184 L 81.63397817891467,11.099596441563769 L 76.9156781927447,17.343605189196065 L 75.58372661975706,14.655500837200831 A 57.39832422485672 57.39832422485672 0 0 1 58.83391835855353,19.9545163431064"/><text text-anchor="middle" pointer-events="none" font-size="8px" fill="#000000" x="48.29190474975505" y="23.094200691761017" font-family="sans-serif">road</text></g><g class="relationship" transform="translate(-12.001697763524 70.62585869634744) rotate(477.52581687835755)"><path class="outline" fill="#A5ABB6" stroke="none" d="M 24.018736134675446,6.953439040707552 L 24.277555179777966,5.987513214418485 A 128.5374668552474 128.5374668552474 0 0 0 34.396221714972185,8.265574438078673 L 34.21612420361974,9.249223199784126 A 129.5374668552474 129.5374668552474 0 0 1 24.018736134675446,6.953439040707552 Z M 77.17879361587967,9.870820768899392 L 77.0272290185368,8.882373414291024 A 128.5374668552474 128.5374668552474 0 0 0 87.20756574715982,6.898004627736519 L 86.51526800250113,3.9789767359991886 L 94.13401378532338,5.769147872155787 L 88.13062940670474,10.790041816719627 L 87.43833166204605,7.871013924982297 A 129.5374668552474 129.5374668552474 0 0 1 77.17879361587967,9.870820768899392"/><text text-anchor="middle" pointer-events="none" font-size="8px" fill="#000000" x="55.678739865229595" y="13.853817458116225" transform="rotate(180 55.678739865229595 10.853817458116225)" font-family="sans-serif">twowheeler</text></g><g class="relationship" transform="translate(-66.74743040476034 175.6758361915759) rotate(356.7989485329781)"><path class="outline" fill="#A5ABB6" stroke="none" d="M 25 0.5 L 39.517423889437474 0.5 L 39.517423889437474 -0.5 L 25 -0.5 Z M 57.517423889437474 0.5 L 72.03484777887495 0.5 L 72.03484777887495 3.5 L 79.03484777887495 0 L 72.03484777887495 -3.5 L 72.03484777887495 -0.5 L 57.517423889437474 -0.5 Z"/><text text-anchor="middle" pointer-events="none" font-size="8px" fill="#000000" x="48.517423889437474" y="3" font-family="sans-serif">trek</text></g><g class="relationship" transform="translate(-66.74743040476034 175.6758361915759) rotate(356.7989485329781)"><path class="outline" fill="#A5ABB6" stroke="none" d="M 21.40063509461097,-12.933012701892217 L 21.90063509461097,-12.06698729810778 A 56.39832422485672 56.39832422485672 0 0 1 27.637187293480725,-14.95662808846862 L 27.2389022340878,-15.873889780388858 A 57.39832422485672 57.39832422485672 0 0 0 21.40063509461097,-12.933012701892217 Z M 69.57045500469974,-17.219615824144206 L 69.23123503511692,-16.278908743148094 A 56.39832422485672 56.39832422485672 0 0 1 75.13974276209451,-13.759466053202418 L 73.80779118910687,-11.071361701207184 L 81.63397817891467,-11.099596441563769 L 76.9156781927447,-17.343605189196065 L 75.58372661975706,-14.655500837200831 A 57.39832422485672 57.39832422485672 0 0 0 69.57045500469974,-17.219615824144206"/><text text-anchor="middle" pointer-events="none" font-size="8px" fill="#000000" x="48.29190474975504" y="-17.094200691761017" font-family="sans-serif">twowheeler</text></g><g class="relationship" transform="translate(-66.74743040476034 175.6758361915759) rotate(407.53099900925696)"><path class="outline" fill="#A5ABB6" stroke="none" d="M 25 0.5 L 49.09553319651435 0.5 L 49.09553319651435 -0.5 L 25 -0.5 Z M 67.09553319651435 0.5 L 91.1910663930287 0.5 L 91.1910663930287 3.5 L 98.1910663930287 0 L 91.1910663930287 -3.5 L 91.1910663930287 -0.5 L 67.09553319651435 -0.5 Z"/><text text-anchor="middle" pointer-events="none" font-size="8px" fill="#000000" x="58.09553319651435" y="3" font-family="sans-serif">trek</text></g><g class="relationship" transform="translate(16.430095522989046 266.5468327723892) rotate(343.6327611975514)"><path class="outline" fill="#A5ABB6" stroke="none" d="M 25 0.5 L 48.00586761407113 0.5 L 48.00586761407113 -0.5 L 25 -0.5 Z M 66.00586761407112 0.5 L 89.01173522814226 0.5 L 89.01173522814226 3.5 L 96.01173522814226 0 L 89.01173522814226 -3.5 L 89.01173522814226 -0.5 L 66.00586761407112 -0.5 Z"/><text text-anchor="middle" pointer-events="none" font-size="8px" fill="#000000" x="57.00586761407113" y="3" font-family="sans-serif">trek</text></g></g><g class="layer nodes"><g class="node" transform="translate(99.60105854453295,-87.1236621839614)"><circle class="outline" cx="0" cy="0" r="25" fill="#57C7E3" stroke="#23b3d7" stroke-width="2px"/><text text-anchor="middle" pointer-events="none" font-family="sans-serif" dy="1.5625" font-size="25" fill="#2A2C34"/><text text-anchor="middle" pointer-events="none" y="5" font-size="10px" fill="#2A2C34" font-family="sans-serif"> Darjeeli…</text></g><g class="node" transform="translate(132.53786139566483,232.44658692310085)"><circle class="outline" cx="0" cy="0" r="25" fill="#F16667" stroke="#eb2728" stroke-width="2px"/><text text-anchor="middle" pointer-events="none" font-family="sans-serif" dy="1.5625" font-size="25" fill="#FFFFFF"/><text text-anchor="middle" pointer-events="none" y="5" font-size="10px" fill="#FFFFFF" font-family="sans-serif"> Sandak…</text></g><g class="node" transform="translate(197.1335935348239,-40.62970459813304)"><circle class="outline" cx="0" cy="0" r="25" fill="#D9C8AE" stroke="#c0a378" stroke-width="2px"/><text text-anchor="middle" pointer-events="none" font-family="sans-serif" dy="1.5625" font-size="25" fill="#2A2C34"/><text text-anchor="middle" pointer-events="none" y="5" font-size="10px" fill="#2A2C34" font-family="sans-serif"> Tumbli…</text></g><g class="node" transform="translate(269.1628317237982,47.337771653038644)"><circle class="outline" cx="0" cy="0" r="25" fill="#D9C8AE" stroke="#c0a378" stroke-width="2px"/><text text-anchor="middle" pointer-events="none" font-family="sans-serif" dy="1.5625" font-size="25" fill="#2A2C34"/><text text-anchor="middle" pointer-events="none" y="5" font-size="10px" fill="#2A2C34" font-family="sans-serif"> Gairibus</text></g><g class="node" transform="translate(182.8213964281125,121.81369776689218)"><circle class="outline" cx="0" cy="0" r="25" fill="#D9C8AE" stroke="#c0a378" stroke-width="2px"/><text text-anchor="middle" pointer-events="none" font-family="sans-serif" dy="1.5625" font-size="25" fill="#2A2C34"/><text text-anchor="middle" pointer-events="none" y="5" font-size="10px" fill="#2A2C34" font-family="sans-serif"> BhikeB…</text></g><g class="node" transform="translate(102.66021778819788,24.55132106154143)"><circle class="outline" cx="0" cy="0" r="25" fill="#57C7E3" stroke="#23b3d7" stroke-width="2px"/><text text-anchor="middle" pointer-events="none" font-family="sans-serif" dy="1.5625" font-size="25" fill="#2A2C34"/><text text-anchor="middle" pointer-events="none" y="5" font-size="10px" fill="#2A2C34" font-family="sans-serif"> Rimbik</text></g><g class="node" transform="translate(-12.001697763524,70.62585869634744)"><circle class="outline" cx="0" cy="0" r="25" fill="#D9C8AE" stroke="#c0a378" stroke-width="2px"/><text text-anchor="middle" pointer-events="none" font-family="sans-serif" dy="1.5625" font-size="25" fill="#2A2C34"/><text text-anchor="middle" pointer-events="none" y="5" font-size="10px" fill="#2A2C34" font-family="sans-serif"> Sirikhola</text></g><g class="node" transform="translate(37.12509592112071,169.86654819279048)"><circle class="outline" cx="0" cy="0" r="25" fill="#D9C8AE" stroke="#c0a378" stroke-width="2px"/><text text-anchor="middle" pointer-events="none" font-family="sans-serif" dy="1.5625" font-size="25" fill="#2A2C34"/><text text-anchor="middle" pointer-events="none" y="5" font-size="10px" fill="#2A2C34" font-family="sans-serif"> Gurdum</text></g><g class="node" transform="translate(-66.74743040476034,175.6758361915759)"><circle class="outline" cx="0" cy="0" r="25" fill="#D9C8AE" stroke="#c0a378" stroke-width="2px"/><text text-anchor="middle" pointer-events="none" font-family="sans-serif" dy="1.5625" font-size="25" fill="#2A2C34"/><text text-anchor="middle" pointer-events="none" y="5" font-size="10px" fill="#2A2C34" font-family="sans-serif"> Ramm…</text></g><g class="node" transform="translate(16.430095522989046,266.5468327723892)"><circle class="outline" cx="0" cy="0" r="25" fill="#F16667" stroke="#eb2728" stroke-width="2px"/><text text-anchor="middle" pointer-events="none" font-family="sans-serif" dy="1.5625" font-size="25" fill="#FFFFFF"/><text text-anchor="middle" pointer-events="none" y="5" font-size="10px" fill="#FFFFFF" font-family="sans-serif"> Sabargr…</text></g></g></svg>