<svg xmlns="http://www.w3.org/2000/svg" width="549.3917236328125" height="312.671875" viewBox="-127.95257568359375 -58.515625 549.3917236328125 312.671875"><title>Neo4j Graph Visualization</title><desc>Created using Neo4j (http://www.neo4j.com/)</desc><g class="layer relationships"><g class="relationship" transform="translate(140.73861545533734 99.45977992220544) rotate(524.7178067429063)"><path class="outline" fill="#A5ABB6" stroke="none" d="M 5.987513214418485,24.277555179777966 L 6.953439040707552,24.018736134675446 A 120.59148102971282 120.59148102971282 0 0 0 96.99258822956406,110.46389144328863 L 96.77330842188283,111.43955345748375 A 121.59148102971282 121.59148102971282 0 0 1 5.987513214418485,24.277555179777966 Z M 143.65458956512242,112.70603570210874 L 143.48830550972525,111.71995780816694 A 120.59148102971282 120.59148102971282 0 0 0 238.06329905981517,30.262092270308163 L 235.2116689177038,29.330316797030413 L 240.71271352114846,23.763584517594623 L 241.8654725826303,31.504459568011825 L 239.01384244051894,30.572684094734075 A 121.59148102971282 121.59148102971282 0 0 1 143.65458956512242,112.70603570210874"/><text text-anchor="middle" pointer-events="none" font-size="8px" fill="#000000" x="120.16581185452422" y="116.8546835525437" transform="rotate(180 120.16581185452422 113.8546835525437)" font-family="sans-serif">ECONOMY</text></g><g class="relationship" transform="translate(140.73861545533734 99.45977992220544) rotate(345.8577553244696)"><path class="outline" fill="#A5ABB6" stroke="none" d="M 5.987513214418485,24.277555179777966 L 6.953439040707552,24.018736134675446 A 126.36755876499248 126.36755876499248 0 0 0 102.53721166180655,114.87485857258197 L 102.32768070106093,115.85266058551149 A 127.36755876499248 127.36755876499248 0 0 1 5.987513214418485,24.277555179777966 Z M 149.22785662130116,117.06589669994612 L 149.06916056745214,116.07856921501889 A 126.36755876499248 126.36755876499248 0 0 0 249.22256915225614,30.285869515234552 L 246.36881200120828,29.36062893957697 L 251.85709002063183,23.781309592065796 L 253.02757868698663,31.51952361611133 L 250.17382153593877,30.594283040453746 A 127.36755876499248 127.36755876499248 0 0 1 149.22785662130116,117.06589669994612"/><text text-anchor="middle" pointer-events="none" font-size="8px" fill="#000000" x="125.73435467878592" y="121.13753680493184" font-family="sans-serif">ECONOMY</text></g><g class="relationship" transform="translate(392.43910831288395 36.03965967436376) rotate(525.8577553244696)"><path class="outline" fill="#A5ABB6" stroke="none" d="M 17.324116139070416,-18.031222920256962 L 18.031222920256962,-17.324116139070416 A 156.95494328369682 156.95494328369682 0 0 1 103.76018528896599,-61.249998398529044 L 103.59927960584714,-62.2369681858782 A 157.95494328369682 157.95494328369682 0 0 0 17.324116139070416,-18.031222920256962 Z M 148.58082471954714,-63.07868021658334 L 148.45695587026717,-62.086381618288414 A 156.95494328369682 156.95494328369682 0 0 1 235.76924337936396,-21.398514003774793 L 233.7287702316754,-19.199316574356065 L 241.24078290595577,-17.003942897404606 L 238.4898742429487,-24.330777242999762 L 236.44940109526016,-22.131579813581034 A 157.95494328369682 157.95494328369682 0 0 0 148.58082471954714,-63.07868021658334"/><text text-anchor="middle" pointer-events="none" font-size="8px" fill="#000000" x="126.06928569889268" y="-60.76759523264846" transform="rotate(180 126.06928569889268 -63.76759523264846)" font-family="sans-serif">BUSINESS</text></g><g class="relationship" transform="translate(392.43910831288395 36.03965967436376) rotate(525.8577553244696)"><path class="outline" fill="#A5ABB6" stroke="none" d="M 24.018736134675446,-6.953439040707552 L 24.277555179777966,-5.987513214418485 A 404.67490495393645 404.67490495393645 0 0 1 97.33057146580295,-18.534177286306715 L 97.25227514497053,-19.531107417330986 A 405.67490495393645 405.67490495393645 0 0 0 24.018736134675446,-6.953439040707552 Z M 155.2729375054871,-19.92579970747272 L 155.20821126896635,-18.92789664890148 A 404.67490495393645 404.67490495393645 0 0 1 228.4251591040469,-7.376250985441338 L 227.6881969383911,-4.468178296117378 L 235.33348907341212,-6.1413513804651005 L 229.40777532492135,-11.253681237873286 L 228.67081315926552,-8.345608548549325 A 405.67490495393645 405.67490495393645 0 0 0 155.2729375054871,-19.92579970747272"/><text text-anchor="middle" pointer-events="none" font-size="8px" fill="#000000" x="126.25894210878836" y="-17.267101694675205" transform="rotate(180 126.25894210878836 -20.267101694675205)" font-family="sans-serif">FIRST_CLASS</text></g><g class="relationship" transform="translate(392.43910831288395 36.03965967436376) rotate(525.8577553244696)"><path class="outline" fill="#A5ABB6" stroke="none" d="M 24.018736134675446,6.953439040707552 L 24.277555179777966,5.987513214418485 A 404.67490495393645 404.67490495393645 0 0 0 102.80967176460649,18.92709396465483 L 102.74491495470426,19.924995039697535 A 405.67490495393645 405.67490495393645 0 0 1 24.018736134675446,6.953439040707552 Z M 149.77544733791248,20.24492569504872 L 149.72427256858984,19.246235981982238 A 404.67490495393645 404.67490495393645 0 0 0 228.4251591040469,7.376250985441338 L 227.6881969383911,4.468178296117378 L 235.33348907341212,6.1413513804651005 L 229.40777532492135,11.253681237873286 L 228.67081315926552,8.345608548549325 A 405.67490495393645 405.67490495393645 0 0 1 149.77544733791248,20.24492569504872"/><text text-anchor="middle" pointer-events="none" font-size="8px" fill="#000000" x="126.25894210878833" y="23.267101694675205" transform="rotate(180 126.25894210878833 20.267101694675205)" font-family="sans-serif">ECONOMY</text></g><g class="relationship" transform="translate(140.73861545533734 99.45977992220544) rotate(524.7178067429063)"><path class="outline" fill="#A5ABB6" stroke="none" d="M 10.396609043987748,22.74116356711926 L 11.29757791189017,22.307279828001697 A 124.46410867329793 124.46410867329793 0 0 0 97.10993947437109,89.95242598266034 L 96.8984252812113,90.92980090872095 A 125.46410867329793 125.46410867329793 0 0 1 10.396609043987748,22.74116356711926 Z M 143.7941009805385,92.10571950286504 L 143.6318375555793,91.11897202710415 A 124.46410867329793 124.46410867329793 0 0 0 232.72665502495866,27.859658915807117 L 230.09238259432382,26.42417685001975 L 236.51515858356834,21.952270255290365 L 236.23901826580513,29.773635003523605 L 233.6047458351703,28.33815293773624 A 125.46410867329793 125.46410867329793 0 0 1 143.7941009805385,92.10571950286504"/><text text-anchor="middle" pointer-events="none" font-size="8px" fill="#000000" x="120.30334924329098" y="96.22916758140116" transform="rotate(180 120.30334924329098 93.22916758140116)" font-family="sans-serif">ECONOMY</text></g><g class="relationship" transform="translate(140.73861545533734 99.45977992220544) rotate(524.7178067429063)"><path class="outline" fill="#A5ABB6" stroke="none" d="M 14.44320574945421,20.411854586953456 L 15.247803529220876,19.818034401379958 A 134.46229182972493 134.46229182972493 0 0 0 97.19522472428753,71.84858702337036 L 97.00007231451976,72.82935995170894 A 135.46229182972493 135.46229182972493 0 0 1 14.44320574945421,20.411854586953456 Z M 143.92452001609067,73.87548550519799 L 143.77327013878835,72.8869899439454 A 134.46229182972493 134.46229182972493 0 0 0 227.95804153679865,24.560159804403487 L 225.62603807805786,22.672897271415273 L 232.7503213568946,19.43336215617306 L 231.06737948178633,27.076509848387772 L 228.73537602304555,25.18924731539956 A 135.46229182972493 135.46229182972493 0 0 1 143.92452001609067,73.87548550519799"/><text text-anchor="middle" pointer-events="none" font-size="8px" fill="#000000" x="120.4277863502317" y="77.9003765158426" transform="rotate(180 120.4277863502317 74.9003765158426)" font-family="sans-serif">ECONOMY</text></g><g class="relationship" transform="translate(140.73861545533734 99.45977992220544) rotate(524.7178067429063)"><path class="outline" fill="#A5ABB6" stroke="none" d="M 17.9862104268602,17.370844380187897 L 18.666383164631117,16.637792508358068 A 154.0336388319207 154.0336388319207 0 0 0 97.2482637304999,55.514355232607585 L 97.0782515080669,56.49979718636405 A 155.0336388319207 155.0336388319207 0 0 1 17.9862104268602,17.370844380187897 Z M 144.04052137324763,57.38145872956167 L 143.9076169498545,56.39032987101575 A 154.0336388319207 154.0336388319207 0 0 0 223.89333306895412,20.490687819377325 L 221.93679677922555,18.216492193012876 L 229.5258789120926,16.304469081071414 L 226.50204812192553,23.52294865452992 L 224.54551183219695,21.24875302816547 A 155.0336388319207 155.0336388319207 0 0 1 144.04052137324763,57.38145872956167"/><text text-anchor="middle" pointer-events="none" font-size="8px" fill="#000000" x="120.53518828941593" y="61.229558066803605" transform="rotate(180 120.53518828941593 58.229558066803605)" font-family="sans-serif">ECONOMY</text></g><g class="relationship" transform="translate(140.73861545533734 99.45977992220544) rotate(524.7178067429063)"><path class="outline" fill="#A5ABB6" stroke="none" d="M 20.90208894244944,13.724164012497553 L 21.434121018964774,12.87743981326927 A 191.72104179671692 191.72104179671692 0 0 0 97.27248640400938,40.470042181626724 L 97.13602053490834,41.46068695477729 A 192.72104179671692 192.72104179671692 0 0 1 20.90208894244944,13.724164012497553 Z M 144.13594360295986,42.14871807306767 L 144.02853406214263,41.1545032117115 A 191.72104179671692 191.72104179671692 0 0 0 220.64208434953315,15.793641986285984 L 219.1210272171369,13.20783743064251 L 226.9291378347673,12.675476103302017 L 222.67016052606144,19.241381393810617 L 221.1491033936652,16.655576838167143 A 192.72104179671692 192.72104179671692 0 0 1 144.13594360295986,42.14871807306767"/><text text-anchor="middle" pointer-events="none" font-size="8px" fill="#000000" x="120.62224571970627" y="45.743042858975485" transform="rotate(180 120.62224571970627 42.743042858975485)" font-family="sans-serif">ECONOMY</text></g><g class="relationship" transform="translate(140.73861545533734 99.45977992220544) rotate(345.8577553244696)"><path class="outline" fill="#A5ABB6" stroke="none" d="M 17.324116139070416,-18.031222920256962 L 18.031222920256962,-17.324116139070416 A 156.95494328369682 156.95494328369682 0 0 1 97.38858609537671,-60.07575085262218 L 97.187085327705,-61.05523920917764 A 157.95494328369682 157.95494328369682 0 0 0 17.324116139070416,-18.031222920256962 Z M 155.03274052327447,-62.137669432040354 L 154.8680251156684,-61.15132829708898 A 156.95494328369682 156.95494328369682 0 0 1 235.76924337936396,-21.398514003774793 L 233.7287702316754,-19.199316574356065 L 241.24078290595577,-17.003942897404606 L 238.4898742429487,-24.330777242999762 L 236.44940109526016,-22.131579813581034 A 157.95494328369682 157.95494328369682 0 0 0 155.03274052327447,-62.137669432040354"/><text text-anchor="middle" pointer-events="none" font-size="8px" fill="#000000" x="126.06928569889268" y="-60.76759523264846" font-family="sans-serif">FIRST_CLASS</text></g><g class="relationship selected" transform="translate(140.73861545533734 99.45977992220544) rotate(524.7178067429063)"><path class="outline" fill="#A5ABB6" stroke="none" d="M 23.08917320392191,9.598962483481976 L 23.454514228288303,8.668088734837774 A 273.6658193337666 273.6658193337666 0 0 0 91.81497676030536,25.752614852326815 L 91.69943113493485,26.745917026117695 A 274.6658193337666 274.6658193337666 0 0 1 23.08917320392191,9.598962483481976 Z M 149.69399838691618,27.327557300599494 L 149.5983980917908,26.332137497917245 A 273.6658193337666 273.6658193337666 0 0 0 218.2877643744311,10.622114266243456 L 217.24797175866794,7.808072454861758 L 225.0271607036156,8.66493846469302 L 219.674154528782,14.374170014752387 L 218.63436191301884,11.56012820337069 A 274.6658193337666 274.6658193337666 0 0 1 149.69399838691618,27.327557300599494"/><text text-anchor="middle" pointer-events="none" font-size="8px" fill="#000000" x="120.68633395349717" y="31.071793470402497" transform="rotate(180 120.68633395349717 28.071793470402497)" font-family="sans-serif">FIRST_CLASS</text></g><g class="relationship" transform="translate(140.73861545533734 99.45977992220544) rotate(524.7178067429063)"><path class="outline" fill="#A5ABB6" stroke="none" d="M 24.471206027250748,5.139073415689509 L 24.657117634413662,4.15650694245622 A 531.3210340696035 531.3210340696035 0 0 0 91.77412320658382,12.475096262093189 L 91.71453260173112,13.473319162959115 A 532.3210340696035 532.3210340696035 0 0 1 24.471206027250748,5.139073415689509 Z M 149.7395423091757,13.76903500706544 L 149.69012912497305,12.770256584577737 A 531.3210340696035 531.3210340696035 0 0 0 216.88843506261745,5.136185301555955 L 216.36077345651236,2.1829543201658104 L 223.8672509535453,4.397180050875759 L 217.59198387075756,9.073826610076146 L 217.06432226465247,6.120595628686003 A 532.3210340696035 532.3210340696035 0 0 1 149.7395423091757,13.76903500706544"/><text text-anchor="middle" pointer-events="none" font-size="8px" fill="#000000" x="120.72555328057985" y="16.91240010590377" transform="rotate(180 120.72555328057985 13.912400105903771)" font-family="sans-serif">FIRST_CLASS</text></g><g class="relationship" transform="translate(140.73861545533734 99.45977992220544) rotate(524.7178067429063)"><path class="outline" fill="#A5ABB6" stroke="none" d="M 25 0.5 L 91.73875456589818 0.5 L 91.73875456589818 -0.5 L 25 -0.5 Z M 149.73875456589818 0.5 L 216.47750913179635 0.5 L 216.47750913179635 3.5 L 223.47750913179635 0 L 216.47750913179635 -3.5 L 216.47750913179635 -0.5 L 149.73875456589818 -0.5 Z"/><text text-anchor="middle" pointer-events="none" font-size="8px" fill="#000000" x="120.73875456589818" y="3" transform="rotate(180 120.73875456589818 0)" font-family="sans-serif">FIRST_CLASS</text></g><g class="relationship" transform="translate(140.73861545533734 99.45977992220544) rotate(524.7178067429063)"><path class="outline" fill="#A5ABB6" stroke="none" d="M 24.471206027250748,-5.139073415689509 L 24.657117634413662,-4.15650694245622 A 531.3210340696035 531.3210340696035 0 0 1 91.77412320658382,-12.475096262093189 L 91.71453260173112,-13.473319162959115 A 532.3210340696035 532.3210340696035 0 0 0 24.471206027250748,-5.139073415689509 Z M 149.73954230917576,-13.769035007065327 L 149.69012912497314,-12.770256584577623 A 531.3210340696035 531.3210340696035 0 0 1 216.88843506261745,-5.136185301555955 L 216.36077345651236,-2.1829543201658104 L 223.8672509535453,-4.397180050875759 L 217.59198387075756,-9.073826610076146 L 217.06432226465247,-6.120595628686003 A 532.3210340696035 532.3210340696035 0 0 0 149.73954230917576,-13.769035007065327"/><text text-anchor="middle" pointer-events="none" font-size="8px" fill="#000000" x="120.72555328057987" y="-10.912400105903771" transform="rotate(180 120.72555328057987 -13.912400105903771)" font-family="sans-serif">FIRST_CLASS</text></g><g class="relationship" transform="translate(140.73861545533734 99.45977992220544) rotate(524.7178067429063)"><path class="outline" fill="#A5ABB6" stroke="none" d="M 23.08917320392191,-9.598962483481976 L 23.454514228288303,-8.668088734837774 A 273.6658193337666 273.6658193337666 0 0 1 91.81497676030526,-25.752614852326758 L 91.69943113493476,-26.745917026117695 A 274.6658193337666 274.6658193337666 0 0 0 23.08917320392191,-9.598962483481976 Z M 149.69399838691615,-27.327557300599494 L 149.59839809179078,-26.332137497917245 A 273.6658193337666 273.6658193337666 0 0 1 218.2877643744311,-10.622114266243456 L 217.24797175866794,-7.808072454861758 L 225.0271607036156,-8.66493846469302 L 219.674154528782,-14.374170014752387 L 218.63436191301884,-11.56012820337069 A 274.6658193337666 274.6658193337666 0 0 0 149.69399838691615,-27.327557300599494"/><text text-anchor="middle" pointer-events="none" font-size="8px" fill="#000000" x="120.6863339534971" y="-25.071793470402497" transform="rotate(180 120.6863339534971 -28.071793470402497)" font-family="sans-serif">FIRST_CLASS</text></g><g class="relationship" transform="translate(140.73861545533734 99.45977992220544) rotate(345.8577553244696)"><path class="outline" fill="#A5ABB6" stroke="none" d="M 5.987513214418485,-24.277555179777966 L 6.953439040707552,-24.018736134675446 A 126.36755876499248 126.36755876499248 0 0 1 103.51197248405622,-115.07972316052741 L 103.31015521843753,-116.05914635368663 A 127.36755876499248 127.36755876499248 0 0 0 5.987513214418485,-24.277555179777966 Z M 148.23602032484922,-117.22131005456511 L 148.08511146819603,-116.23276237388217 A 126.36755876499248 126.36755876499248 0 0 1 249.22256915225614,-30.285869515234552 L 246.36881200120828,-29.36062893957697 L 251.85709002063183,-23.781309592065796 L 253.02757868698663,-31.51952361611133 L 250.17382153593877,-30.594283040453746 A 127.36755876499248 127.36755876499248 0 0 0 148.23602032484922,-117.22131005456511"/><text text-anchor="middle" pointer-events="none" font-size="8px" fill="#000000" x="125.73435467878589" y="-115.13753680493184" font-family="sans-serif">BUSINESS</text></g><g class="relationship" transform="translate(140.73861545533734 99.45977992220544) rotate(524.7178067429063)"><path class="outline" fill="#A5ABB6" stroke="none" d="M 20.90208894244944,-13.724164012497553 L 21.434121018964774,-12.87743981326927 A 191.72104179671692 191.72104179671692 0 0 1 98.260903929833,-40.603582336671224 L 98.12959355914029,-41.59492364346144 A 192.72104179671692 192.72104179671692 0 0 0 20.90208894244944,-13.724164012497553 Z M 143.13886699719006,-42.253813673817035 L 143.0366311343297,-41.25905348746798 A 191.72104179671692 191.72104179671692 0 0 1 220.64208434953315,-15.793641986285984 L 219.1210272171369,-13.20783743064251 L 226.9291378347673,-12.675476103302017 L 222.67016052606144,-19.241381393810617 L 221.1491033936652,-16.655576838167143 A 192.72104179671692 192.72104179671692 0 0 0 143.13886699719006,-42.253813673817035"/><text text-anchor="middle" pointer-events="none" font-size="8px" fill="#000000" x="120.62224571970627" y="-39.743042858975485" transform="rotate(180 120.62224571970627 -42.743042858975485)" font-family="sans-serif">BUSINESS</text></g><g class="relationship" transform="translate(140.73861545533734 99.45977992220544) rotate(524.7178067429063)"><path class="outline" fill="#A5ABB6" stroke="none" d="M 17.9862104268602,-17.370844380187897 L 18.666383164631117,-16.637792508358068 A 154.0336388319207 154.0336388319207 0 0 1 98.23105869052085,-55.68063807982918 L 98.06742685984823,-56.667159556529356 A 155.0336388319207 155.0336388319207 0 0 0 17.9862104268602,-17.370844380187897 Z M 143.0457612081531,-57.511575036995424 L 142.91927319975605,-56.5196069005456 A 154.0336388319207 154.0336388319207 0 0 1 223.89333306895412,-20.490687819377325 L 221.93679677922555,-18.216492193012876 L 229.5258789120926,-16.304469081071414 L 226.50204812192553,-23.52294865452992 L 224.54551183219695,-21.24875302816547 A 155.0336388319207 155.0336388319207 0 0 0 143.0457612081531,-57.511575036995424"/><text text-anchor="middle" pointer-events="none" font-size="8px" fill="#000000" x="120.53518828941591" y="-55.229558066803605" transform="rotate(180 120.53518828941591 -58.229558066803605)" font-family="sans-serif">BUSINESS</text></g><g class="relationship" transform="translate(140.73861545533734 99.45977992220544) rotate(524.7178067429063)"><path class="outline" fill="#A5ABB6" stroke="none" d="M 14.44320574945421,-20.411854586953456 L 15.247803529220876,-19.818034401379958 A 134.46229182972493 134.46229182972493 0 0 1 98.17307551139892,-72.03939463597297 L 97.98519540655624,-73.02158660611133 A 135.46229182972493 135.46229182972493 0 0 0 14.44320574945421,-20.411854586953456 Z M 142.93180900095075,-74.02361866673203 L 142.78788744359437,-73.03402956749534 A 134.46229182972493 134.46229182972493 0 0 1 227.95804153679865,-24.560159804403487 L 225.62603807805786,-22.672897271415273 L 232.7503213568946,-19.43336215617306 L 231.06737948178633,-27.076509848387772 L 228.73537602304555,-25.18924731539956 A 135.46229182972493 135.46229182972493 0 0 0 142.93180900095075,-74.02361866673203"/><text text-anchor="middle" pointer-events="none" font-size="8px" fill="#000000" x="120.4277863502317" y="-71.9003765158426" transform="rotate(180 120.4277863502317 -74.9003765158426)" font-family="sans-serif">BUSINESS</text></g><g class="relationship" transform="translate(140.73861545533734 99.45977992220544) rotate(524.7178067429063)"><path class="outline" fill="#A5ABB6" stroke="none" d="M 10.396609043987748,-22.74116356711926 L 11.29757791189017,-22.307279828001697 A 124.46410867329793 124.46410867329793 0 0 1 98.08423629741826,-90.1591966728453 L 97.88055003821817,-91.13823288658463 A 125.46410867329793 125.46410867329793 0 0 0 10.396609043987748,-22.74116356711926 Z M 142.80276412035985,-92.26466652980585 L 142.64840205357123,-91.27665218156147 A 124.46410867329793 124.46410867329793 0 0 1 232.72665502495866,-27.859658915807117 L 230.09238259432382,-26.42417685001975 L 236.51515858356834,-21.952270255290365 L 236.23901826580513,-29.773635003523605 L 233.6047458351703,-28.33815293773624 A 125.46410867329793 125.46410867329793 0 0 0 142.80276412035985,-92.26466652980585"/><text text-anchor="middle" pointer-events="none" font-size="8px" fill="#000000" x="120.30334924329094" y="-90.22916758140116" transform="rotate(180 120.30334924329094 -93.22916758140116)" font-family="sans-serif">BUSINESS</text></g><g class="relationship" transform="translate(140.73861545533734 99.45977992220544) rotate(524.7178067429063)"><path class="outline" fill="#A5ABB6" stroke="none" d="M 5.987513214418485,-24.277555179777966 L 6.953439040707552,-24.018736134675446 A 120.59148102971282 120.59148102971282 0 0 1 97.96511227106186,-110.67825138047134 L 97.75389707982943,-111.65569096581288 A 121.59148102971282 121.59148102971282 0 0 0 5.987513214418485,-24.277555179777966 Z M 142.6637618655746,-112.86891605208714 L 142.50562663517042,-111.88149858773632 A 120.59148102971282 120.59148102971282 0 0 1 238.06329905981517,-30.262092270308163 L 235.2116689177038,-29.330316797030413 L 240.71271352114846,-23.763584517594623 L 241.8654725826303,-31.504459568011825 L 239.01384244051894,-30.572684094734075 A 121.59148102971282 121.59148102971282 0 0 0 142.6637618655746,-112.86891605208714"/><text text-anchor="middle" pointer-events="none" font-size="8px" fill="#000000" x="120.16581185452421" y="-110.8546835525437" transform="rotate(180 120.16581185452421 -113.8546835525437)" font-family="sans-serif">BUSINESS</text></g></g><g class="layer nodes"><g class="node" transform="translate(-98.95257489776286,164.95180853222666)"><circle class="outline" cx="0" cy="0" r="25" fill="#F79767" stroke="#f36924" stroke-width="2px"/><text text-anchor="middle" pointer-events="none" font-family="sans-serif" dy="1.5625" font-size="25" fill="#FFFFFF"/><text text-anchor="middle" pointer-events="none" y="5" font-size="10px" fill="#FFFFFF" font-family="sans-serif"> GRR</text></g><g class="node" transform="translate(392.43910831288395,36.03965967436376)"><circle class="outline" cx="0" cy="0" r="25" fill="#F79767" stroke="#f36924" stroke-width="2px"/><text text-anchor="middle" pointer-events="none" font-family="sans-serif" dy="1.5625" font-size="25" fill="#FFFFFF"/><text text-anchor="middle" pointer-events="none" y="5" font-size="10px" fill="#FFFFFF" font-family="sans-serif"> MSN</text></g><g class="node" transform="translate(140.73861545533734,99.45977992220544)"><circle class="outline" cx="0" cy="0" r="25" fill="#F79767" stroke="#f36924" stroke-width="2px"/><text text-anchor="middle" pointer-events="none" font-family="sans-serif" dy="1.5625" font-size="25" fill="#FFFFFF"/><text text-anchor="middle" pointer-events="none" y="5" font-size="10px" fill="#FFFFFF" font-family="sans-serif"> ORD</text></g></g></svg>