<svg xmlns="http://www.w3.org/2000/svg" width="197.04904174804688" height="276.6484375" viewBox="-36.10546875 -38.7578125 197.04904174804688 276.6484375"><title>Neo4j Graph Visualization</title><desc>Created using Neo4j (http://www.neo4j.com/)</desc><g class="layer relationships"><g class="relationship" transform="translate(31.28752788341592 45.601391889857126) rotate(339.5318078659135)"><path class="outline" fill="#A5ABB6" stroke="none" d="M 5.987513214418485,24.277555179777966 L 6.953439040707552,24.018736134675446 A 46.493435663540794 46.493435663540794 0 0 0 27.934738878797628,51.848799722454515 L 27.420087507464427,52.7061992594178 A 47.493435663540794 47.493435663540794 0 0 1 5.987513214418485,24.277555179777966 Z M 71.09752253607665,55.40937607356615 L 70.69252186669337,54.49505968532896 A 46.493435663540794 46.493435663540794 0 0 0 94.9453409583577,29.46451537836943 L 92.16542002699633,28.3366680414577 L 98.04030489971197,23.16600776134483 L 98.65190220017287,30.96831182758507 L 95.8719812688115,29.840464490673337 A 47.493435663540794 47.493435663540794 0 0 1 71.09752253607665,55.40937607356615"/><text text-anchor="middle" pointer-events="none" font-size="8px" fill="#000000" x="48.95980079940702" y="61.88904303506759" font-family="sans-serif">BUSINESS</text></g><g class="relationship" transform="translate(29.923057507736722 152.3006097606499) rotate(270.7326589096838)"><path class="outline" fill="#A5ABB6" stroke="none" d="M 5.987513214418485,24.277555179777966 L 6.953439040707552,24.018736134675446 A 46.10182445362662 46.10182445362662 0 0 0 27.582794188881444,51.508683603003675 L 27.064342088256417,52.36379027433626 A 47.10182445362662 47.10182445362662 0 0 1 5.987513214418485,24.277555179777966 Z M 70.7159139646835,55.08356679165506 L 70.30761699809555,54.170717632661585 A 46.10182445362662 46.10182445362662 0 0 0 94.1897786482369,29.454126837055416 L 91.41079556666598,28.323970638849758 L 97.28997362431191,23.158192346424244 L 97.89508942366477,30.961001767996294 L 95.11610634209386,29.830845569790636 A 47.10182445362662 47.10182445362662 0 0 1 70.7159139646835,55.08356679165506"/><text text-anchor="middle" pointer-events="none" font-size="8px" fill="#000000" x="48.58640516818587" y="61.598336467012764" font-family="sans-serif">BUSINESS</text></g><g class="relationship" transform="translate(29.923057507736722 152.3006097606499) rotate(382.08565019809026)"><path class="outline" fill="#A5ABB6" stroke="none" d="M 5.987513214418485,24.277555179777966 L 6.953439040707552,24.018736134675446 A 46.484734833768776 46.484734833768776 0 0 0 27.926913243400367,51.841250849602176 L 27.412177991343782,52.69860003184372 A 47.484734833768776 47.484734833768776 0 0 1 5.987513214418485,24.277555179777966 Z M 71.08904560971442,55.4021437819194 L 70.68397225862157,54.48785959183712 A 46.484734833768776 46.484734833768776 0 0 0 94.92855354623369,29.464286238263185 L 92.1486533001362,28.3363879176034 L 98.02363300212276,23.16583538414569 L 98.63508720769698,30.968150665809564 L 95.8551869615995,29.84025234514978 A 47.484734833768776 47.484734833768776 0 0 1 71.08904560971442,55.4021437819194"/><text text-anchor="middle" pointer-events="none" font-size="8px" fill="#000000" x="48.95150387662329" y="61.88258414523497" font-family="sans-serif">BUSINESS</text></g><g class="relationship" transform="translate(31.28752788341592 45.601391889857126) rotate(339.5318078659135)"><path class="outline" fill="#A5ABB6" stroke="none" d="M 17.324116139070416,18.031222920256962 L 18.031222920256962,17.324116139070416 A 47.844862022117304 47.844862022117304 0 0 0 27.67119128200868,24.77106400958378 L 27.16556837922261,25.63381859819991 A 48.844862022117304 48.844862022117304 0 0 1 17.324116139070416,18.031222920256962 Z M 72.75939500080253,27.641829785241022 L 72.33157629409169,26.737965218954535 A 47.844862022117304 47.844862022117304 0 0 0 82.58889762451105,20.167319761600908 L 80.66228019738107,17.867722994887437 L 88.2757263180308,16.05514522608319 L 85.15772086068436,23.233448783885535 L 83.23110343355438,20.933852017172065 A 48.844862022117304 48.844862022117304 0 0 1 72.75939500080253,27.641829785241022"/><text text-anchor="middle" pointer-events="none" font-size="8px" fill="#000000" x="49.735540859618915" y="34.79073416607806" font-family="sans-serif">ECONOMY</text></g><g class="relationship" transform="translate(31.28752788341592 45.601391889857126) rotate(339.5318078659135)"><path class="outline" fill="#A5ABB6" stroke="none" d="M 24.018736134675446,6.953439040707552 L 24.277555179777966,5.987513214418485 A 106.58061932933155 106.58061932933155 0 0 0 27.012520302212465,6.681675773238041 L 26.779362255700914,7.654114627535279 A 107.58061932933155 107.58061932933155 0 0 1 24.018736134675446,6.953439040707552 Z M 73.6148024862672,8.397135169456561 L 73.41260851005808,7.417789675779915 A 106.58061932933155 106.58061932933155 0 0 0 76.16821682807176,6.810732284181952 L 75.48407084505949,3.88978307648796 L 83.09778930985979,5.701216525102305 L 77.08041147208813,10.705331227773943 L 76.39626548907586,7.784382020079951 A 107.58061932933155 107.58061932933155 0 0 1 73.6148024862672,8.397135169456561"/><text text-anchor="middle" pointer-events="none" font-size="8px" fill="#000000" x="50.1640832366369" y="13.105687154083341" font-family="sans-serif">ECONOMY</text></g><g class="relationship" transform="translate(31.28752788341592 45.601391889857126) rotate(339.5318078659135)"><path class="outline" fill="#A5ABB6" stroke="none" d="M 24.018736134675446,-6.953439040707552 L 24.277555179777966,-5.987513214418485 A 106.58061932933155 106.58061932933155 0 0 1 25.081170866079084,-6.199486663932348 L 24.82989180049027,-7.167401345707972 A 107.58061932933155 107.58061932933155 0 0 0 24.018736134675446,-6.953439040707552 Z M 75.57873092829297,-7.9725059793996 L 75.35828154089297,-6.9971075645992755 A 106.58061932933155 106.58061932933155 0 0 1 76.16821682807176,-6.810732284181952 L 75.48407084505949,-3.88978307648796 L 83.09778930985979,-5.701216525102305 L 77.08041147208813,-10.705331227773943 L 76.39626548907586,-7.784382020079951 A 107.58061932933155 107.58061932933155 0 0 0 75.57873092829297,-7.9725059793996"/><text text-anchor="middle" pointer-events="none" font-size="8px" fill="#000000" x="50.16408323663689" y="-7.105687154083341" font-family="sans-serif">FIRST_CL…</text></g><g class="relationship" transform="translate(31.28752788341592 45.601391889857126) rotate(339.5318078659135)"><path class="outline" fill="#A5ABB6" stroke="none" d="M 17.324116139070416,-18.031222920256962 L 18.031222920256962,-17.324116139070416 A 47.844862022117304 47.844862022117304 0 0 1 23.141623081452344,-21.757993557034766 L 22.541328190721934,-22.557772304041066 A 48.844862022117304 48.844862022117304 0 0 0 17.324116139070416,-18.031222920256962 Z M 77.63615284139048,-24.98421975195604 L 77.10849235729107,-24.13476438907935 A 47.844862022117304 47.844862022117304 0 0 1 82.58889762451105,-20.167319761600908 L 80.66228019738107,-17.867722994887437 L 88.2757263180308,-16.05514522608319 L 85.15772086068436,-23.233448783885535 L 83.23110343355438,-20.933852017172065 A 48.844862022117304 48.844862022117304 0 0 0 77.63615284139048,-24.98421975195604"/><text text-anchor="middle" pointer-events="none" font-size="8px" fill="#000000" x="49.735540859618915" y="-28.79073416607806" font-family="sans-serif">FIRST_CLASS</text></g><g class="relationship" transform="translate(31.28752788341592 45.601391889857126) rotate(339.5318078659135)"><path class="outline" fill="#A5ABB6" stroke="none" d="M 5.987513214418485,-24.277555179777966 L 6.953439040707552,-24.018736134675446 A 46.493435663540794 46.493435663540794 0 0 1 27.934738878797607,-51.848799722454494 L 27.420087507464405,-52.70619925941778 A 47.493435663540794 47.493435663540794 0 0 0 5.987513214418485,-24.277555179777966 Z M 71.09752253607665,-55.40937607356616 L 70.69252186669337,-54.49505968532897 A 46.493435663540794 46.493435663540794 0 0 1 94.9453409583577,-29.46451537836943 L 92.16542002699633,-28.3366680414577 L 98.04030489971197,-23.16600776134483 L 98.65190220017287,-30.96831182758507 L 95.8719812688115,-29.840464490673337 A 47.493435663540794 47.493435663540794 0 0 0 71.09752253607665,-55.40937607356616"/><text text-anchor="middle" pointer-events="none" font-size="8px" fill="#000000" x="48.959800799407006" y="-55.88904303506759" font-family="sans-serif">BUSINESS</text></g><g class="relationship" transform="translate(29.923057507736722 152.3006097606499) rotate(270.7326589096838)"><path class="outline" fill="#A5ABB6" stroke="none" d="M 17.324116139070416,18.031222920256962 L 18.031222920256962,17.324116139070416 A 47.30991116096762 47.30991116096762 0 0 0 27.330053651889692,24.550142480709454 L 26.819498301543806,25.409987370345476 A 48.30991116096762 48.30991116096762 0 0 1 17.324116139070416,18.031222920256962 Z M 72.37691757762626,27.429532301947177 L 71.94444864617859,26.52788346601796 A 47.30991116096762 47.30991116096762 0 0 0 81.84620253748876,20.153012522889625 L 79.92090909223106,17.852307163733936 L 87.53539728306166,16.044112043814252 L 84.41326046449905,23.22061966843054 L 82.48796701924134,20.91991430927485 A 48.30991116096762 48.30991116096762 0 0 1 72.37691757762626,27.429532301947177"/><text text-anchor="middle" pointer-events="none" font-size="8px" fill="#000000" x="49.367064156705666" y="34.63396134506917" font-family="sans-serif">ECONOMY</text></g><g class="relationship" transform="translate(29.923057507736722 152.3006097606499) rotate(382.08565019809026)"><path class="outline" fill="#A5ABB6" stroke="none" d="M 17.324116139070416,18.031222920256962 L 18.031222920256962,17.324116139070416 A 47.832976467614614 47.832976467614614 0 0 0 27.663601490970734,24.766169020982424 L 27.15786998019487,25.62885994999951 A 48.832976467614614 48.832976467614614 0 0 1 17.324116139070416,18.031222920256962 Z M 72.75090120126704,27.637126423556055 L 72.32298019853476,26.73331028328161 A 47.832976467614614 47.832976467614614 0 0 0 82.57239425697989,20.167003902578067 L 80.64580605900727,17.867382647798788 L 88.25927521779364,16.054901649771836 L 85.14117852094338,23.233165575617104 L 83.21459032297076,20.933544320837825 A 48.832976467614614 48.832976467614614 0 0 1 72.75090120126704,27.637126423556055"/><text text-anchor="middle" pointer-events="none" font-size="8px" fill="#000000" x="49.72735258132982" y="34.78725096189704" font-family="sans-serif">ECONOMY</text></g><g class="relationship" transform="translate(29.923057507736722 152.3006097606499) rotate(382.08565019809026)"><path class="outline" fill="#A5ABB6" stroke="none" d="M 24.018736134675446,6.953439040707552 L 24.277555179777966,5.987513214418485 A 106.54814739055406 106.54814739055406 0 0 0 27.00455573215319,6.6797541759500945 L 26.77133075526454,7.652176980164029 A 107.54814739055406 107.54814739055406 0 0 1 24.018736134675446,6.953439040707552 Z M 73.60660648340397,8.39530063475678 L 73.40434952160277,7.415968147088279 A 106.54814739055406 106.54814739055406 0 0 0 76.15193905503925,6.8105911428776595 L 75.46780625577625,3.8896388473116104 L 83.08151654457053,5.701106660525003 L 77.06411612072324,10.705194203632391 L 76.37998332146024,7.784241908066343 A 107.54814739055406 107.54814739055406 0 0 1 73.60660648340397,8.39530063475678"/><text text-anchor="middle" pointer-events="none" font-size="8px" fill="#000000" x="50.15595241529541" y="13.104580952773176" font-family="sans-serif">ECONOMY</text></g><g class="relationship" transform="translate(29.923057507736722 152.3006097606499) rotate(270.7326589096838)"><path class="outline" fill="#A5ABB6" stroke="none" d="M 24.018736134675446,6.953439040707552 L 24.277555179777966,5.987513214418485 A 105.11910639711782 105.11910639711782 0 0 0 26.65426346378339,6.594718592557044 L 26.41805408846846,7.566420774819349 A 106.11910639711782 106.11910639711782 0 0 1 24.018736134675446,6.953439040707552 Z M 73.24591986476645,8.314107706612418 L 73.04085275966078,7.335359790955081 A 105.11910639711782 105.11910639711782 0 0 0 75.4357347382412,6.804341008640716 L 74.75218575348534,3.8832520361102243 L 82.36553383827165,5.696241539632133 L 76.34713338458234,10.699126305348036 L 75.66358439982648,7.778037332817545 A 106.11910639711782 106.11910639711782 0 0 1 73.24591986476645,8.314107706612418"/><text text-anchor="middle" pointer-events="none" font-size="8px" fill="#000000" x="49.798207243979064" y="13.055899433317151" font-family="sans-serif">ECONOMY</text></g><g class="relationship" transform="translate(29.923057507736722 152.3006097606499) rotate(382.08565019809026)"><path class="outline" fill="#A5ABB6" stroke="none" d="M 24.018736134675446,-6.953439040707552 L 24.277555179777966,-5.987513214418485 A 106.54814739055406 106.54814739055406 0 0 1 25.07324362039307,-6.197427356622256 L 24.821892452115275,-7.165323317046415 A 107.54814739055406 107.54814739055406 0 0 0 24.018736134675446,-6.953439040707552 Z M 75.57050915977115,-7.970538978254993 L 75.34999151450847,-6.995155992896002 A 106.54814739055406 106.54814739055406 0 0 1 76.15193905503925,-6.8105911428776595 L 75.46780625577625,-3.8896388473116104 L 83.08151654457053,-5.701106660525003 L 77.06411612072324,-10.705194203632391 L 76.37998332146024,-7.784241908066343 A 107.54814739055406 107.54814739055406 0 0 0 75.57050915977115,-7.970538978254993"/><text text-anchor="middle" pointer-events="none" font-size="8px" fill="#000000" x="50.15595241529539" y="-7.104580952773176" font-family="sans-serif">FIRST_CL…</text></g><g class="relationship" transform="translate(29.923057507736722 152.3006097606499) rotate(382.08565019809026)"><path class="outline" fill="#A5ABB6" stroke="none" d="M 17.324116139070416,-18.031222920256962 L 18.031222920256962,-17.324116139070416 A 47.832976467614614 47.832976467614614 0 0 1 23.134467637592042,-21.752473555926464 L 22.53404969524015,-22.552159928513817 A 48.832976467614614 48.832976467614614 0 0 0 17.324116139070416,-18.031222920256962 Z M 77.62733202247833,-24.97889026103976 L 77.09955163836173,-24.129509388791192 A 47.832976467614614 47.832976467614614 0 0 1 82.57239425697989,-20.167003902578067 L 80.64580605900727,-17.867382647798788 L 88.25927521779364,-16.054901649771836 L 85.14117852094338,-23.233165575617104 L 83.21459032297076,-20.933544320837825 A 48.832976467614614 48.832976467614614 0 0 0 77.62733202247833,-24.97889026103976"/><text text-anchor="middle" pointer-events="none" font-size="8px" fill="#000000" x="49.72735258132982" y="-28.787250961897037" font-family="sans-serif">FIRST_CLASS</text></g><g class="relationship" transform="translate(29.923057507736722 152.3006097606499) rotate(270.7326589096838)"><path class="outline" fill="#A5ABB6" stroke="none" d="M 24.018736134675446,-6.953439040707552 L 24.277555179777966,-5.987513214418485 A 105.11910639711782 105.11910639711782 0 0 1 24.724626295030003,-6.106251898910642 L 24.470060245701276,-7.073307288497588 A 106.11910639711782 106.11910639711782 0 0 0 24.018736134675446,-6.953439040707552 Z M 75.20866352011102,-7.883435830057394 L 74.98510074799513,-6.908746296449976 A 105.11910639711782 105.11910639711782 0 0 1 75.4357347382412,-6.804341008640716 L 74.75218575348534,-3.8832520361102243 L 82.36553383827165,-5.696241539632133 L 76.34713338458234,-10.699126305348036 L 75.66358439982648,-7.778037332817545 A 106.11910639711782 106.11910639711782 0 0 0 75.20866352011102,-7.883435830057394"/><text text-anchor="middle" pointer-events="none" font-size="8px" fill="#000000" x="49.798207243979014" y="-7.055899433317151" font-family="sans-serif">FIRST_CL…</text></g><g class="relationship" transform="translate(29.923057507736722 152.3006097606499) rotate(270.7326589096838)"><path class="outline" fill="#A5ABB6" stroke="none" d="M 17.324116139070416,-18.031222920256962 L 18.031222920256962,-17.324116139070416 A 47.30991116096762 47.30991116096762 0 0 1 22.82033194189157,-21.508703259095057 L 22.214453611659835,-22.304260578812254 A 48.30991116096762 48.30991116096762 0 0 0 17.324116139070416,-18.031222920256962 Z M 77.23871043583294,-24.74346720531115 L 76.70560391799006,-23.897419073918243 A 47.30991116096762 47.30991116096762 0 0 1 81.84620253748876,-20.153012522889625 L 79.92090909223106,-17.852307163733936 L 87.53539728306166,-16.044112043814252 L 84.41326046449905,-23.22061966843054 L 82.48796701924134,-20.91991430927485 A 48.30991116096762 48.30991116096762 0 0 0 77.23871043583294,-24.74346720531115"/><text text-anchor="middle" pointer-events="none" font-size="8px" fill="#000000" x="49.367064156705666" y="-28.633961345069167" font-family="sans-serif">FIRST_CLASS</text></g><g class="relationship" transform="translate(29.923057507736722 152.3006097606499) rotate(382.08565019809026)"><path class="outline" fill="#A5ABB6" stroke="none" d="M 5.987513214418485,-24.277555179777966 L 6.953439040707552,-24.018736134675446 A 46.484734833768776 46.484734833768776 0 0 1 27.926913243400346,-51.84125084960216 L 27.41217799134376,-52.698600031843704 A 47.484734833768776 47.484734833768776 0 0 0 5.987513214418485,-24.277555179777966 Z M 71.0890456097144,-55.402143781919406 L 70.68397225862155,-54.48785959183713 A 46.484734833768776 46.484734833768776 0 0 1 94.92855354623369,-29.464286238263185 L 92.1486533001362,-28.3363879176034 L 98.02363300212276,-23.16583538414569 L 98.63508720769698,-30.968150665809564 L 95.8551869615995,-29.84025234514978 A 47.484734833768776 47.484734833768776 0 0 0 71.0890456097144,-55.402143781919406"/><text text-anchor="middle" pointer-events="none" font-size="8px" fill="#000000" x="48.95150387662328" y="-55.88258414523497" font-family="sans-serif">BUSINESS</text></g><g class="relationship" transform="translate(29.923057507736722 152.3006097606499) rotate(270.7326589096838)"><path class="outline" fill="#A5ABB6" stroke="none" d="M 5.987513214418485,-24.277555179777966 L 6.953439040707552,-24.018736134675446 A 46.10182445362662 46.10182445362662 0 0 1 27.58279418888145,-51.508683603003675 L 27.064342088256424,-52.36379027433626 A 47.10182445362662 47.10182445362662 0 0 0 5.987513214418485,-24.277555179777966 Z M 70.71591396468348,-55.083566791655066 L 70.30761699809554,-54.17071763266159 A 46.10182445362662 46.10182445362662 0 0 1 94.1897786482369,-29.454126837055416 L 91.41079556666598,-28.323970638849758 L 97.28997362431191,-23.158192346424244 L 97.89508942366477,-30.961001767996294 L 95.11610634209386,-29.830845569790636 A 47.10182445362662 47.10182445362662 0 0 0 70.71591396468348,-55.083566791655066"/><text text-anchor="middle" pointer-events="none" font-size="8px" fill="#000000" x="48.58640516818586" y="-55.598336467012764" font-family="sans-serif">BUSINESS</text></g></g><g class="layer nodes"><g class="node" transform="translate(131.94355446813842,8.031323201365163)"><circle class="outline" cx="0" cy="0" r="25" fill="#F79767" stroke="#f36924" stroke-width="2px"/><text text-anchor="middle" pointer-events="none" font-family="sans-serif" dy="1.5625" font-size="25" fill="#FFFFFF"/><text text-anchor="middle" pointer-events="none" y="5" font-size="10px" fill="#FFFFFF" font-family="sans-serif"> LAX</text></g><g class="node" transform="translate(129.46346292482798,192.6907393893729)"><circle class="outline" cx="0" cy="0" r="25" fill="#F79767" stroke="#f36924" stroke-width="2px"/><text text-anchor="middle" pointer-events="none" font-family="sans-serif" dy="1.5625" font-size="25" fill="#FFFFFF"/><text text-anchor="middle" pointer-events="none" y="5" font-size="10px" fill="#FFFFFF" font-family="sans-serif"> DAY</text></g><g class="node" transform="translate(31.28752788341592,45.601391889857126)"><circle class="outline" cx="0" cy="0" r="25" fill="#F79767" stroke="#f36924" stroke-width="2px"/><text text-anchor="middle" pointer-events="none" font-family="sans-serif" dy="1.5625" font-size="25" fill="#FFFFFF"/><text text-anchor="middle" pointer-events="none" y="5" font-size="10px" fill="#FFFFFF" font-family="sans-serif"> ORD</text></g><g class="node" transform="translate(29.923057507736722,152.3006097606499)"><circle class="outline" cx="0" cy="0" r="25" fill="#F79767" stroke="#f36924" stroke-width="2px"/><text text-anchor="middle" pointer-events="none" font-family="sans-serif" dy="1.5625" font-size="25" fill="#FFFFFF"/><text text-anchor="middle" pointer-events="none" y="5" font-size="10px" fill="#FFFFFF" font-family="sans-serif"> MSP</text></g></g></svg>