<svg xmlns="http://www.w3.org/2000/svg" width="574.8892822265625" height="231.7734375" viewBox="-290.33740234375 2.4921875 574.8892822265625 231.7734375"><title>Neo4j Graph Visualization</title><desc>Created using Neo4j (http://www.neo4j.com/)</desc><g class="layer relationships"><g class="relationship" transform="translate(92.7970035685257 100.53607164229273) rotate(353.6061314973581)"><path class="outline" fill="#A5ABB6" stroke="none" d="M 5.987513214418485,24.277555179777966 L 6.953439040707552,24.018736134675446 A 76.31560088050354 76.31560088050354 0 0 0 54.73414247217545,76.04056303297159 L 54.394310169100386,76.9810490806016 A 77.31560088050354 77.31560088050354 0 0 1 5.987513214418485,24.277555179777966 Z M 100.92699863411445,78.8811563867134 L 100.66497713362233,77.91609435073858 A 76.31560088050354 76.31560088050354 0 0 0 152.52803406024765,29.963102572666198 L 149.7032098689472,28.95296976543548 L 155.35581464233607,23.54020159417029 L 156.2944663153149,31.30994631564049 L 153.46964212401446,30.299813508409773 A 77.31560088050354 77.31560088050354 0 0 1 100.92699863411445,78.8811563867134"/><text text-anchor="middle" pointer-events="none" font-size="8px" fill="#000000" x="77.53458643710192" y="84.01844485317025" font-family="sans-serif">ECONOMY</text></g><g class="relationship" transform="translate(-54.70458106876223 116.83179681250442) rotate(353.69562565251954)"><path class="outline" fill="#A5ABB6" stroke="none" d="M 5.987513214418485,24.277555179777966 L 6.953439040707552,24.018736134675446 A 68.22648172045571 68.22648172045571 0 0 0 47.11084384714023,69.54335615106257 L 46.73350772669251,70.46943252599362 A 69.22648172045571 69.22648172045571 0 0 1 5.987513214418485,24.277555179777966 Z M 93.11132575528563,72.55705092594667 L 92.81871856970386,71.60081819541193 A 68.22648172045571 68.22648172045571 0 0 0 136.9038577025128,29.86823265287607 L 134.08755985234941,28.834566159675745 L 139.78512916167412,23.469148751361548 L 140.65892150273064,31.24645464380984 L 137.84262365256726,30.212788150609516 A 69.22648172045571 69.22648172045571 0 0 1 93.11132575528563,72.55705092594667"/><text text-anchor="middle" pointer-events="none" font-size="8px" fill="#000000" x="69.76468375369983" y="78.017383949363" font-family="sans-serif">ECONOMY</text></g><g class="relationship" transform="translate(-54.70458106876223 116.83179681250442) rotate(533.7441522435433)"><path class="outline" fill="#A5ABB6" stroke="none" d="M 5.987513214418485,24.277555179777966 L 6.953439040707552,24.018736134675446 A 99.40944261071796 99.40944261071796 0 0 0 76.70453868116553,94.16495903776193 L 76.4402675247814,95.12940745831297 A 100.40944261071796 100.40944261071796 0 0 1 5.987513214418485,24.277555179777966 Z M 123.21682115252574,96.63777827599144 L 123.01523419425929,95.6583076545551 A 99.40944261071796 99.40944261071796 0 0 0 197.14064000816347,30.151569821361075 L 194.29890635088387,29.190034683633737 L 199.8578442724072,23.68111381066324 L 200.9296182178696,31.433616671664193 L 198.08788456059,30.472081533936855 A 100.40944261071796 100.40944261071796 0 0 1 123.21682115252574,96.63777827599144"/><text text-anchor="middle" pointer-events="none" font-size="8px" fill="#000000" x="99.755550798694" y="101.14721809536539" transform="rotate(180 99.755550798694 98.14721809536539)" font-family="sans-serif">ECONOMY</text></g><g class="relationship" transform="translate(92.7970035685257 100.53607164229273) rotate(353.6061314973581)"><path class="outline" fill="#A5ABB6" stroke="none" d="M 17.324116139070416,18.031222920256962 L 18.031222920256962,17.324116139070416 A 88.58269730434584 88.58269730434584 0 0 0 55.07284687164105,39.49087156958747 L 54.78389877243863,40.44821633296549 A 89.58269730434584 89.58269730434584 0 0 1 17.324116139070416,18.031222920256962 Z M 101.48132856045316,41.81815419116896 L 101.24899932381733,40.84551698963685 A 88.58269730434584 88.58269730434584 0 0 0 139.52639039190768,20.88835576133129 L 137.53307533254343,18.646326530007197 L 145.0900111082246,16.610958828035397 L 142.18414380439333,23.877728069763418 L 140.19082874502908,21.635698838439325 A 89.58269730434584 89.58269730434584 0 0 1 101.48132856045316,41.81815419116896"/><text text-anchor="middle" pointer-events="none" font-size="8px" fill="#000000" x="78.05640063887365" y="46.731078650205475" font-family="sans-serif">ECONOMY</text></g><g class="relationship" transform="translate(92.7970035685257 100.53607164229273) rotate(353.6061314973581)"><path class="outline" fill="#A5ABB6" stroke="none" d="M 24.018736134675446,6.953439040707552 L 24.277555179777966,5.987513214418485 A 217.878455110752 217.878455110752 0 0 0 49.52744978310439,11.174564167194148 L 49.38452055643522,12.164297078723195 A 218.878455110752 218.878455110752 0 0 1 24.018736134675446,6.953439040707552 Z M 107.34333509783026,12.78004090180167 L 107.22146523994783,11.78749481333034 A 217.878455110752 217.878455110752 0 0 0 132.57586092296728,7.138054565874285 L 131.8611430035205,4.224435116525818 L 139.4934259580215,5.955982662056532 L 133.52881814889633,11.022880498338907 L 132.81410022944956,8.10926104899044 A 218.878455110752 218.878455110752 0 0 1 107.34333509783026,12.78004090180167"/><text text-anchor="middle" pointer-events="none" font-size="8px" fill="#000000" x="78.34876711054503" y="16.899218890055607" font-family="sans-serif">FIRST_CLASS</text></g><g class="relationship" transform="translate(92.7970035685257 100.53607164229273) rotate(353.6061314973581)"><path class="outline" fill="#A5ABB6" stroke="none" d="M 24.018736134675446,-6.953439040707552 L 24.277555179777966,-5.987513214418485 A 217.878455110752 217.878455110752 0 0 1 49.527449783104394,-11.174564167194148 L 49.384520556435234,-12.164297078723195 A 218.878455110752 218.878455110752 0 0 0 24.018736134675446,-6.953439040707552 Z M 107.3433350978302,-12.78004090180167 L 107.22146523994776,-11.78749481333034 A 217.878455110752 217.878455110752 0 0 1 132.57586092296728,-7.138054565874285 L 131.8611430035205,-4.224435116525818 L 139.4934259580215,-5.955982662056532 L 133.52881814889633,-11.022880498338907 L 132.81410022944956,-8.10926104899044 A 218.878455110752 218.878455110752 0 0 0 107.3433350978302,-12.78004090180167"/><text text-anchor="middle" pointer-events="none" font-size="8px" fill="#000000" x="78.348767110545" y="-10.899218890055607" font-family="sans-serif">FIRST_CLASS</text></g><g class="relationship" transform="translate(92.7970035685257 100.53607164229273) rotate(353.6061314973581)"><path class="outline" fill="#A5ABB6" stroke="none" d="M 17.324116139070416,-18.031222920256962 L 18.031222920256962,-17.324116139070416 A 88.58269730434584 88.58269730434584 0 0 1 56.026410970521624,-39.77284870429462 L 55.74822754803258,-40.733376675491854 A 89.58269730434584 89.58269730434584 0 0 0 17.324116139070416,-18.031222920256962 Z M 100.501941405387,-42.046292765022145 L 100.28054494019628,-41.07110888225897 A 88.58269730434584 88.58269730434584 0 0 1 139.52639039190768,-20.88835576133129 L 137.53307533254343,-18.646326530007197 L 145.0900111082246,-16.610958828035397 L 142.18414380439333,-23.877728069763418 L 140.19082874502908,-21.635698838439325 A 89.58269730434584 89.58269730434584 0 0 0 100.501941405387,-42.046292765022145"/><text text-anchor="middle" pointer-events="none" font-size="8px" fill="#000000" x="78.05640063887363" y="-40.731078650205475" font-family="sans-serif">BUSINESS</text></g><g class="relationship" transform="translate(92.7970035685257 100.53607164229273) rotate(353.6061314973581)"><path class="outline" fill="#A5ABB6" stroke="none" d="M 5.987513214418485,-24.277555179777966 L 6.953439040707552,-24.018736134675446 A 76.31560088050354 76.31560088050354 0 0 1 55.67067798730277,-76.37209201950861 L 55.34311755923519,-77.31692225080107 A 77.31560088050354 77.31560088050354 0 0 0 5.987513214418485,-24.277555179777966 Z M 99.95396575425517,-79.1385534821651 L 99.70452946126034,-78.17016227209706 A 76.31560088050354 76.31560088050354 0 0 1 152.52803406024765,-29.963102572666198 L 149.7032098689472,-28.95296976543548 L 155.35581464233607,-23.54020159417029 L 156.2944663153149,-31.30994631564049 L 153.46964212401446,-30.299813508409773 A 77.31560088050354 77.31560088050354 0 0 0 99.95396575425517,-79.1385534821651"/><text text-anchor="middle" pointer-events="none" font-size="8px" fill="#000000" x="77.53458643710192" y="-78.01844485317025" font-family="sans-serif">BUSINESS</text></g><g class="relationship" transform="translate(-54.70458106876223 116.83179681250442) rotate(533.7441522435433)"><path class="outline" fill="#A5ABB6" stroke="none" d="M 17.324116139070416,18.031222920256962 L 18.031222920256962,17.324116139070416 A 120.1294717787962 120.1294717787962 0 0 0 76.98666252023713,49.66430255125498 L 76.77032156634515,50.640620425550594 A 121.1294717787962 121.1294717787962 0 0 1 17.324116139070416,18.031222920256962 Z M 123.65450124345548,51.73104627994172 L 123.48378379621178,50.74572625415995 A 120.1294717787962 120.1294717787962 0 0 0 183.87899055040305,21.18138089154024 L 181.85858534133058,18.96373286014462 L 189.39023682517157,16.83671007560377 L 186.57286416249968,24.138244933401065 L 184.55245895342722,21.920596902005446 A 121.1294717787962 121.1294717787962 0 0 1 123.65450124345548,51.73104627994172"/><text text-anchor="middle" pointer-events="none" font-size="8px" fill="#000000" x="100.17076174059895" y="55.97661109039147" transform="rotate(180 100.17076174059895 52.97661109039147)" font-family="sans-serif">ECONOMY</text></g><g class="relationship" transform="translate(-54.70458106876223 116.83179681250442) rotate(353.69562565251954)"><path class="outline" fill="#A5ABB6" stroke="none" d="M 17.324116139070416,18.031222920256962 L 18.031222920256962,17.324116139070416 A 77.532755037481 77.532755037481 0 0 0 47.480350384210624,35.76304267913412 L 47.153071811756206,36.707970579035575 A 78.532755037481 78.532755037481 0 0 1 17.324116139070416,18.031222920256962 Z M 93.71821814693574,38.210987030303826 L 93.45255755263157,37.246920409870384 A 77.532755037481 77.532755037481 0 0 0 124.02947960489666,20.745497497049833 L 122.04937507454083,18.491792536576003 L 129.6181419343949,16.500871086298545 L 126.66961897870443,23.750437444348268 L 124.6895144483486,21.49673248387444 A 78.532755037481 78.532755037481 0 0 1 93.71821814693574,38.210987030303826"/><text text-anchor="middle" pointer-events="none" font-size="8px" fill="#000000" x="70.33775190296764" y="43.49231681712901" font-family="sans-serif">ECONOMY</text></g><g class="relationship" transform="translate(-54.70458106876223 116.83179681250442) rotate(533.7441522435433)"><path class="outline" fill="#A5ABB6" stroke="none" d="M 24.018736134675446,6.953439040707552 L 24.277555179777966,5.987513214418485 A 304.06584578986804 304.06584578986804 0 0 0 71.5130187750979,14.716163971451465 L 71.40954589678573,15.710796246945165 A 305.06584578986804 305.06584578986804 0 0 1 24.018736134675446,6.953439040707552 Z M 129.41495122654123,16.200426253722014 L 129.32828349707881,15.204188980443291 A 304.06584578986804 304.06584578986804 0 0 0 176.7043648009468,7.274164680837995 L 175.97693573793558,4.363692733148644 L 183.61670418939048,6.06190885842673 L 177.67427021829505,11.154793944423794 L 176.94684115528383,8.244321996734444 A 305.06584578986804 305.06584578986804 0 0 1 129.41495122654123,16.200426253722014"/><text text-anchor="middle" pointer-events="none" font-size="8px" fill="#000000" x="100.40480481541978" y="19.837455728943326" transform="rotate(180 100.40480481541978 16.837455728943326)" font-family="sans-serif">FIRST_CLASS</text></g><g class="relationship" transform="translate(-54.70458106876223 116.83179681250442) rotate(533.7441522435433)"><path class="outline" fill="#A5ABB6" stroke="none" d="M 24.018736134675446,-6.953439040707552 L 24.277555179777966,-5.987513214418485 A 304.06584578986804 304.06584578986804 0 0 1 71.51301877509792,-14.716163971451465 L 71.40954589678574,-15.710796246945165 A 305.06584578986804 305.06584578986804 0 0 0 24.018736134675446,-6.953439040707552 Z M 129.41495122654112,-16.200426253722014 L 129.3282834970787,-15.204188980443291 A 304.06584578986804 304.06584578986804 0 0 1 176.7043648009468,-7.274164680837995 L 175.97693573793558,-4.363692733148644 L 183.61670418939048,-6.06190885842673 L 177.67427021829505,-11.154793944423794 L 176.94684115528383,-8.244321996734444 A 305.06584578986804 305.06584578986804 0 0 0 129.41495122654112,-16.200426253722014"/><text text-anchor="middle" pointer-events="none" font-size="8px" fill="#000000" x="100.40480481541972" y="-13.837455728943326" transform="rotate(180 100.40480481541972 -16.837455728943326)" font-family="sans-serif">FIRST_CLASS</text></g><g class="relationship" transform="translate(-54.70458106876223 116.83179681250442) rotate(353.69562565251954)"><path class="outline" fill="#A5ABB6" stroke="none" d="M 24.018736134675446,6.953439040707552 L 24.277555179777966,5.987513214418485 A 187.68945141697424 187.68945141697424 0 0 0 41.883068394460814,9.80976583280082 L 41.718050642301336,10.796056429669818 A 188.68945141697424 188.68945141697424 0 0 1 24.018736134675446,6.953439040707552 Z M 99.63831300039001,11.472363033058372 L 99.496369966331,10.482488205071462 A 187.68945141697424 187.68945141697424 0 0 0 117.18633211599055,7.07236360695024 L 116.47774931589218,4.157246042356187 L 124.10637023339306,5.904856667486392 L 118.13110918278836,10.959187026408976 L 117.42252638269,8.044069461814924 A 188.68945141697424 188.68945141697424 0 0 1 99.63831300039001,11.472363033058372"/><text text-anchor="middle" pointer-events="none" font-size="8px" fill="#000000" x="70.65791327976363" y="15.87004853608093" font-family="sans-serif">FIRST_CLASS</text></g><g class="relationship" transform="translate(-54.70458106876223 116.83179681250442) rotate(353.69562565251954)"><path class="outline" fill="#A5ABB6" stroke="none" d="M 24.018736134675446,-6.953439040707552 L 24.277555179777966,-5.987513214418485 A 187.68945141697424 187.68945141697424 0 0 1 41.88306839446077,-9.80976583280082 L 41.71805064230129,-10.796056429669818 A 188.68945141697424 188.68945141697424 0 0 0 24.018736134675446,-6.953439040707552 Z M 99.63831300038993,-11.472363033058372 L 99.49636996633093,-10.482488205071462 A 187.68945141697424 187.68945141697424 0 0 1 117.18633211599055,-7.07236360695024 L 116.47774931589218,-4.157246042356187 L 124.10637023339306,-5.904856667486392 L 118.13110918278836,-10.959187026408976 L 117.42252638269,-8.044069461814924 A 188.68945141697424 188.68945141697424 0 0 0 99.63831300038993,-11.472363033058372"/><text text-anchor="middle" pointer-events="none" font-size="8px" fill="#000000" x="70.65791327976356" y="-9.87004853608093" font-family="sans-serif">FIRST_CLASS</text></g><g class="relationship" transform="translate(-54.70458106876223 116.83179681250442) rotate(533.7441522435433)"><path class="outline" fill="#A5ABB6" stroke="none" d="M 17.324116139070416,-18.031222920256962 L 18.031222920256962,-17.324116139070416 A 120.1294717787962 120.1294717787962 0 0 1 77.95981549000943,-49.87571435387693 L 77.75157540391753,-50.853792094419276 A 121.1294717787962 121.1294717787962 0 0 0 17.324116139070416,-18.031222920256962 Z M 122.6643979334095,-51.898368393228864 L 122.50185441192892,-50.911667018128625 A 120.1294717787962 120.1294717787962 0 0 1 183.87899055040305,-21.18138089154024 L 181.85858534133058,-18.96373286014462 L 189.39023682517157,-16.83671007560377 L 186.57286416249968,-24.138244933401065 L 184.55245895342722,-21.920596902005446 A 121.1294717787962 121.1294717787962 0 0 0 122.6643979334095,-51.898368393228864"/><text text-anchor="middle" pointer-events="none" font-size="8px" fill="#000000" x="100.17076174059892" y="-49.97661109039147" transform="rotate(180 100.17076174059892 -52.97661109039147)" font-family="sans-serif">BUSINESS</text></g><g class="relationship" transform="translate(-54.70458106876223 116.83179681250442) rotate(353.69562565251954)"><path class="outline" fill="#A5ABB6" stroke="none" d="M 17.324116139070416,-18.031222920256962 L 18.031222920256962,-17.324116139070416 A 77.532755037481 77.532755037481 0 0 1 48.421281492009,-36.08219948269125 L 48.10613883691421,-37.03124379511286 A 78.532755037481 78.532755037481 0 0 0 17.324116139070416,-18.031222920256962 Z M 92.74628764148562,-38.472125727650536 L 92.4930031634273,-37.50473388709433 A 77.532755037481 77.532755037481 0 0 1 124.02947960489666,-20.745497497049833 L 122.04937507454083,-18.491792536576003 L 129.6181419343949,-16.500871086298545 L 126.66961897870443,-23.750437444348268 L 124.6895144483486,-21.49673248387444 A 78.532755037481 78.532755037481 0 0 0 92.74628764148562,-38.472125727650536"/><text text-anchor="middle" pointer-events="none" font-size="8px" fill="#000000" x="70.33775190296764" y="-37.49231681712901" font-family="sans-serif">BUSINESS</text></g><g class="relationship" transform="translate(-54.70458106876223 116.83179681250442) rotate(533.7441522435433)"><path class="outline" fill="#A5ABB6" stroke="none" d="M 5.987513214418485,-24.277555179777966 L 6.953439040707552,-24.018736134675446 A 99.40944261071796 99.40944261071796 0 0 1 77.66546038984103,-94.42310083236578 L 77.41085553560526,-95.39014600618114 A 100.40944261071796 100.40944261071796 0 0 0 5.987513214418485,-24.277555179777966 Z M 122.23145128619878,-96.83544441784224 L 122.03967784587154,-95.85400519527924 A 99.40944261071796 99.40944261071796 0 0 1 197.14064000816347,-30.151569821361075 L 194.29890635088387,-29.190034683633737 L 199.8578442724072,-23.68111381066324 L 200.9296182178696,-31.433616671664193 L 198.08788456059,-30.472081533936855 A 100.40944261071796 100.40944261071796 0 0 0 122.23145128619878,-96.83544441784224"/><text text-anchor="middle" pointer-events="none" font-size="8px" fill="#000000" x="99.75555079869402" y="-95.14721809536539" transform="rotate(180 99.75555079869402 -98.14721809536539)" font-family="sans-serif">BUSINESS</text></g><g class="relationship" transform="translate(-54.70458106876223 116.83179681250442) rotate(353.69562565251954)"><path class="outline" fill="#A5ABB6" stroke="none" d="M 5.987513214418485,-24.277555179777966 L 6.953439040707552,-24.018736134675446 A 68.22648172045571 68.22648172045571 0 0 1 48.03287555886165,-69.9112455805248 L 47.66905371745148,-70.84271413485874 A 69.22648172045571 69.22648172045571 0 0 0 5.987513214418485,-24.277555179777966 Z M 92.14602598169154,-72.84476920385276 L 91.86736287862853,-71.88438028524152 A 68.22648172045571 68.22648172045571 0 0 1 136.9038577025128,-29.86823265287607 L 134.08755985234941,-28.834566159675745 L 139.78512916167412,-23.469148751361548 L 140.65892150273064,-31.24645464380984 L 137.84262365256726,-30.212788150609516 A 69.22648172045571 69.22648172045571 0 0 0 92.14602598169154,-72.84476920385276"/><text text-anchor="middle" pointer-events="none" font-size="8px" fill="#000000" x="69.76468375369983" y="-72.017383949363" font-family="sans-serif">BUSINESS</text></g></g><g class="layer nodes"><g class="node" transform="translate(255.55189405937185,82.29782174068008)"><circle class="outline" cx="0" cy="0" r="25" fill="#F79767" stroke="#f36924" stroke-width="2px"/><text text-anchor="middle" pointer-events="none" font-family="sans-serif" dy="1.5625" font-size="25" fill="#FFFFFF"/><text text-anchor="middle" pointer-events="none" y="5" font-size="10px" fill="#FFFFFF" font-family="sans-serif"> LAX</text></g><g class="node" transform="translate(-261.33739461911733,139.48311304659947)"><circle class="outline" cx="0" cy="0" r="25" fill="#F79767" stroke="#f36924" stroke-width="2px"/><text text-anchor="middle" pointer-events="none" font-family="sans-serif" dy="1.5625" font-size="25" fill="#FFFFFF"/><text text-anchor="middle" pointer-events="none" y="5" font-size="10px" fill="#FFFFFF" font-family="sans-serif"> DAY</text></g><g class="node" transform="translate(92.7970035685257,100.53607164229273)"><circle class="outline" cx="0" cy="0" r="25" fill="#F79767" stroke="#f36924" stroke-width="2px"/><text text-anchor="middle" pointer-events="none" font-family="sans-serif" dy="1.5625" font-size="25" fill="#FFFFFF"/><text text-anchor="middle" pointer-events="none" y="5" font-size="10px" fill="#FFFFFF" font-family="sans-serif"> ORD</text></g><g class="node" transform="translate(-54.70458106876223,116.83179681250442)"><circle class="outline" cx="0" cy="0" r="25" fill="#F79767" stroke="#f36924" stroke-width="2px"/><text text-anchor="middle" pointer-events="none" font-family="sans-serif" dy="1.5625" font-size="25" fill="#FFFFFF"/><text text-anchor="middle" pointer-events="none" y="5" font-size="10px" fill="#FFFFFF" font-family="sans-serif"> MSP</text></g></g></svg>