<svg xmlns="http://www.w3.org/2000/svg" width="196.99578857421875" height="278.74053955078125" viewBox="-37.95703125 -42.01789474487305 196.99578857421875 278.74053955078125"><title>Neo4j Graph Visualization</title><desc>Created using Neo4j (http://www.neo4j.com/)</desc><g class="layer relationships"><g class="relationship" transform="translate(28.556426573469597 43.19137047503293) rotate(340.3358247057389)"><path class="outline" fill="#A5ABB6" stroke="none" d="M 5.987513214418485,24.277555179777966 L 6.953439040707552,24.018736134675446 A 46.669159153099635 46.669159153099635 0 0 0 27.24897711648171,51.48469288545888 L 26.7179324503437,52.33203671329169 A 47.669159153099635 47.669159153099635 0 0 1 5.987513214418485,24.277555179777966 Z M 72.18897773236083,55.13779144816022 L 71.76613426432854,54.231588710610595 A 46.669159153099635 46.669159153099635 0 0 0 95.28438541850849,29.469127026238024 L 92.5040481864574,28.342306332396074 L 98.37702324281489,23.16947693375912 L 98.99150172790996,30.971554618027287 L 96.21116449585887,29.844733924185338 A 47.669159153099635 47.669159153099635 0 0 1 72.18897773236083,55.13779144816022"/><text text-anchor="middle" pointer-events="none" font-size="8px" fill="#000000" x="49.127374682798106" y="62.01948754635328" font-family="sans-serif">ECONOMY</text></g><g class="relationship" transform="translate(28.86454514119408 149.85922553976687) rotate(269.83449705247153)"><path class="outline" fill="#A5ABB6" stroke="none" d="M 5.987513214418485,24.277555179777966 L 6.953439040707552,24.018736134675446 A 46.08058499532256 46.08058499532256 0 0 0 26.723491374633333,50.9680847015795 L 26.18659769574284,51.81173461568335 A 47.08058499532256 47.08058499532256 0 0 1 5.987513214418485,24.277555179777966 Z M 71.6132764277878,54.643146127319184 L 71.18529936990731,53.739356529056415 A 46.08058499532256 46.08058499532256 0 0 0 94.1488007209242,29.453558968167172 L 91.36986890742449,28.323276713188697 L 97.24928128479058,23.157765112497597 L 97.8540431389238,30.960601974805137 L 95.07511132542409,29.83031971982666 A 47.08058499532256 47.08058499532256 0 0 1 71.6132764277878,54.643146127319184"/><text text-anchor="middle" pointer-events="none" font-size="8px" fill="#000000" x="48.56615579231578" y="61.58256958240772" transform="rotate(180 48.56615579231578 58.58256958240772)" font-family="sans-serif">ECONOMY</text></g><g class="relationship" transform="translate(28.86454514119408 149.85922553976687) rotate(383.8539049654353)"><path class="outline" fill="#A5ABB6" stroke="none" d="M 5.987513214418485,24.277555179777966 L 6.953439040707552,24.018736134675446 A 46.435796868317084 46.435796868317084 0 0 0 27.040461586620726,51.280072378690306 L 26.507112003243478,52.12596730237251 A 47.435796868317084 47.435796868317084 0 0 1 5.987513214418485,24.277555179777966 Z M 71.9607708669583,54.94184780590279 L 71.5359061509132,54.03659095115938 A 46.435796868317084 46.435796868317084 0 0 0 94.83413271701139,29.462996028071313 L 92.05434894337012,28.33481068345781 L 97.9298624833831,23.16486478034393 L 98.54051108186641,30.96724315422265 L 95.76072730822514,29.839057809609148 A 47.435796868317084 47.435796868317084 0 0 1 71.9607708669583,54.94184780590279"/><text text-anchor="middle" pointer-events="none" font-size="8px" fill="#000000" x="48.90483837217633" y="61.84625597745411" font-family="sans-serif">ECONOMY</text></g><g class="relationship" transform="translate(28.86454514119408 149.85922553976687) rotate(269.83449705247153)"><path class="outline" fill="#A5ABB6" stroke="none" d="M 17.324116139070416,18.031222920256962 L 18.031222920256962,17.324116139070416 A 47.28089752136162 47.28089752136162 0 0 0 27.311579377260294,24.538124806112705 L 26.800753905090996,25.39780924646452 A 48.28089752136162 48.28089752136162 0 0 1 17.324116139070416,18.031222920256962 Z M 72.35616251028341,27.417982268404543 L 71.92343865044128,26.51645575125525 A 47.28089752136162 47.28089752136162 0 0 0 81.80592735177248,20.15223120420591 L 79.8807062097754,17.851465341627232 L 87.49525122145558,16.043509516642466 L 84.37288887443528,23.21991902097748 L 82.44766773243819,20.9191531583988 A 48.28089752136162 48.28089752136162 0 0 1 72.35616251028341,27.417982268404543"/><text text-anchor="middle" pointer-events="none" font-size="8px" fill="#000000" x="49.347083270373275" y="34.6254586571779" transform="rotate(180 49.347083270373275 31.6254586571779)" font-family="sans-serif">ECONOMY</text></g><g class="relationship" transform="translate(28.556426573469597 43.19137047503293) rotate(340.3358247057389)"><path class="outline" fill="#A5ABB6" stroke="none" d="M 17.324116139070416,18.031222920256962 L 18.031222920256962,17.324116139070416 A 48.08490477289641 48.08490477289641 0 0 0 27.824575209820544,24.869794991197693 L 27.321136343457106,25.733825840088343 A 49.08490477289641 49.08490477289641 0 0 1 17.324116139070416,18.031222920256962 Z M 72.93089850197632,27.736690701798587 L 72.50513596987429,26.83185576311746 A 48.08490477289641 48.08490477289641 0 0 0 82.92222320321967,20.173679437740226 L 80.99501726252602,17.874575859787488 L 88.60799920855834,16.060049505780476 L 85.49183112414455,23.23915087501054 L 83.5646251834509,20.940047297057802 A 49.08490477289641 49.08490477289641 0 0 1 72.93089850197632,27.736690701798587"/><text text-anchor="middle" pointer-events="none" font-size="8px" fill="#000000" x="49.90092675603864" y="34.861081768851676" font-family="sans-serif">ECONOMY</text></g><g class="relationship" transform="translate(28.86454514119408 149.85922553976687) rotate(383.8539049654353)"><path class="outline" fill="#A5ABB6" stroke="none" d="M 17.324116139070416,18.031222920256962 L 18.031222920256962,17.324116139070416 A 47.76612596359819 47.76612596359819 0 0 0 27.6209212789437,24.738625776535237 L 27.114578075820717,25.600957824328404 A 48.76612596359819 48.76612596359819 0 0 1 17.324116139070416,18.031222920256962 Z M 72.70312426872168,27.610660985350677 L 72.27462704127754,26.707117889492665 A 47.76612596359819 47.76612596359819 0 0 0 82.47957259068075,20.165225647306702 L 80.55314895017484,17.86546653876946 L 88.16674778401863,16.053530337549148 L 85.0481374446886,23.231571125356353 L 83.1217138041827,20.931812016819112 A 48.76612596359819 48.76612596359819 0 0 1 72.70312426872168,27.610660985350677"/><text text-anchor="middle" pointer-events="none" font-size="8px" fill="#000000" x="49.681298692611364" y="34.767659637987705" font-family="sans-serif">ECONOMY</text></g><g class="relationship" transform="translate(28.86454514119408 149.85922553976687) rotate(269.83449705247153)"><path class="outline" fill="#A5ABB6" stroke="none" d="M 24.018736134675446,6.953439040707552 L 24.277555179777966,5.987513214418485 A 105.03983965960181 105.03983965960181 0 0 0 27.60300399557357,6.820646930001757 L 27.37584387937433,7.794504353656961 A 106.03983965960181 106.03983965960181 0 0 1 24.018736134675446,6.953439040707552 Z M 72.24159983690677,8.511113203525298 L 72.04565712588978,7.530497858958782 A 105.03983965960181 105.03983965960181 0 0 0 75.39601695525013,6.803992092755759 L 74.71250056219561,3.8828954938008846 L 82.3258284183206,5.695969942121019 L 76.3073721459895,10.698787558028926 L 75.62385575293499,7.777690959074051 A 106.03983965960181 106.03983965960181 0 0 1 72.24159983690677,8.511113203525298"/><text text-anchor="middle" pointer-events="none" font-size="8px" fill="#000000" x="49.77836827209775" y="13.053199185550724" transform="rotate(180 49.77836827209775 10.053199185550724)" font-family="sans-serif">BUSINESS</text></g><g class="relationship" transform="translate(28.86454514119408 149.85922553976687) rotate(269.83449705247153)"><path class="outline" fill="#A5ABB6" stroke="none" d="M 24.018736134675446,-6.953439040707552 L 24.277555179777966,-5.987513214418485 A 105.03983965960181 105.03983965960181 0 0 1 27.60300399557357,-6.820646930001757 L 27.375843879374333,-7.794504353656961 A 106.03983965960181 106.03983965960181 0 0 0 24.018736134675446,-6.953439040707552 Z M 72.24159983690674,-8.511113203525312 L 72.04565712588976,-7.530497858958796 A 105.03983965960181 105.03983965960181 0 0 1 75.39601695525013,-6.803992092755759 L 74.71250056219561,-3.8828954938008846 L 82.3258284183206,-5.695969942121019 L 76.3073721459895,-10.698787558028926 L 75.62385575293499,-7.777690959074051 A 106.03983965960181 106.03983965960181 0 0 0 72.24159983690674,-8.511113203525312"/><text text-anchor="middle" pointer-events="none" font-size="8px" fill="#000000" x="49.77836827209774" y="-7.053199185550724" transform="rotate(180 49.77836827209774 -10.053199185550724)" font-family="sans-serif">BUSINESS</text></g><g class="relationship" transform="translate(28.86454514119408 149.85922553976687) rotate(383.8539049654353)"><path class="outline" fill="#A5ABB6" stroke="none" d="M 24.018736134675446,6.953439040707552 L 24.277555179777966,5.987513214418485 A 106.36550841706959 106.36550841706959 0 0 0 27.92861956376984,6.8969151728984315 L 27.704126160863996,7.871390781650007 A 107.36550841706959 107.36550841706959 0 0 1 24.018736134675446,6.953439040707552 Z M 72.57572918212296,8.583927554858946 L 72.38228945470775,7.602815394167052 A 106.36550841706959 106.36550841706959 0 0 0 76.06038735949843,6.809796566575015 L 75.37632878016264,3.8888268885336488 L 82.98999303815093,5.700488161131699 L 76.97246546527951,10.704422803963503 L 76.28840688594371,7.7834531259221365 A 107.36550841706959 107.36550841706959 0 0 1 72.57572918212296,8.583927554858946"/><text text-anchor="middle" pointer-events="none" font-size="8px" fill="#000000" x="50.11022196863811" y="13.098359118224579" font-family="sans-serif">BUSINESS</text></g><g class="relationship" transform="translate(28.86454514119408 149.85922553976687) rotate(383.8539049654353)"><path class="outline" fill="#A5ABB6" stroke="none" d="M 24.018736134675446,-6.953439040707552 L 24.277555179777966,-5.987513214418485 A 106.36550841706959 106.36550841706959 0 0 1 27.92861956376985,-6.8969151728984315 L 27.704126160864003,-7.871390781650007 A 107.36550841706959 107.36550841706959 0 0 0 24.018736134675446,-6.953439040707552 Z M 72.57572918212297,-8.583927554858946 L 72.38228945470775,-7.602815394167052 A 106.36550841706959 106.36550841706959 0 0 1 76.06038735949843,-6.809796566575015 L 75.37632878016264,-3.8888268885336488 L 82.98999303815093,-5.700488161131699 L 76.97246546527951,-10.704422803963503 L 76.28840688594371,-7.7834531259221365 A 107.36550841706959 107.36550841706959 0 0 0 72.57572918212297,-8.583927554858946"/><text text-anchor="middle" pointer-events="none" font-size="8px" fill="#000000" x="50.11022196863811" y="-7.098359118224579" font-family="sans-serif">BUSINESS</text></g><g class="relationship" transform="translate(28.86454514119408 149.85922553976687) rotate(269.83449705247153)"><path class="outline" fill="#A5ABB6" stroke="none" d="M 17.324116139070416,-18.031222920256962 L 18.031222920256962,-17.324116139070416 A 47.28089752136162 47.28089752136162 0 0 1 22.802951688668635,-21.495132956305383 L 22.196767880999158,-22.2904575386737 A 48.28089752136162 48.28089752136162 0 0 0 17.324116139070416,-18.031222920256962 Z M 77.21712910086089,-24.73035771292198 L 76.68372429182087,-23.88449761237758 A 47.28089752136162 47.28089752136162 0 0 1 81.80592735177248,-20.15223120420591 L 79.8807062097754,-17.851465341627232 L 87.49525122145558,-16.043509516642466 L 84.37288887443528,-23.21991902097748 L 82.44766773243819,-20.9191531583988 A 48.28089752136162 48.28089752136162 0 0 0 77.21712910086089,-24.73035771292198"/><text text-anchor="middle" pointer-events="none" font-size="8px" fill="#000000" x="49.34708327037327" y="-28.6254586571779" transform="rotate(180 49.34708327037327 -31.6254586571779)" font-family="sans-serif">FIRST_CLASS</text></g><g class="relationship" transform="translate(28.86454514119408 149.85922553976687) rotate(269.83449705247153)"><path class="outline" fill="#A5ABB6" stroke="none" d="M 5.987513214418485,-24.277555179777966 L 6.953439040707552,-24.018736134675446 A 46.08058499532256 46.08058499532256 0 0 1 22.316143465529944,-47.7829662776802 L 21.683605429920654,-48.557495575710654 A 47.08058499532256 47.08058499532256 0 0 0 5.987513214418485,-24.277555179777966 Z M 76.48551516595697,-51.97325834810069 L 75.95405089060344,-51.12617764118844 A 46.08058499532256 46.08058499532256 0 0 1 94.1488007209242,-29.453558968167172 L 91.36986890742449,-28.323276713188697 L 97.24928128479058,-23.157765112497597 L 97.8540431389238,-30.960601974805137 L 95.07511132542409,-29.83031971982666 A 47.08058499532256 47.08058499532256 0 0 0 76.48551516595697,-51.97325834810069"/><text text-anchor="middle" pointer-events="none" font-size="8px" fill="#000000" x="48.566155792315776" y="-55.58256958240772" transform="rotate(180 48.566155792315776 -58.58256958240772)" font-family="sans-serif">FIRST_CLASS</text></g><g class="relationship" transform="translate(28.86454514119408 149.85922553976687) rotate(383.8539049654353)"><path class="outline" fill="#A5ABB6" stroke="none" d="M 17.324116139070416,-18.031222920256962 L 18.031222920256962,-17.324116139070416 A 47.76612596359819 47.76612596359819 0 0 1 23.09423594389376,-21.721410470832645 L 22.493125052503576,-22.520576095876727 A 48.76612596359819 48.76612596359819 0 0 0 17.324116139070416,-18.031222920256962 Z M 77.57771118807851,-24.948898034721708 L 77.04925549924263,-24.099937149322976 A 47.76612596359819 47.76612596359819 0 0 1 82.47957259068075,-20.165225647306702 L 80.55314895017484,-17.86546653876946 L 88.16674778401863,-16.053530337549148 L 85.0481374446886,-23.231571125356353 L 83.1217138041827,-20.931812016819112 A 48.76612596359819 48.76612596359819 0 0 0 77.57771118807851,-24.948898034721708"/><text text-anchor="middle" pointer-events="none" font-size="8px" fill="#000000" x="49.68129869261135" y="-28.767659637987705" font-family="sans-serif">FIRST_CLASS</text></g><g class="relationship" transform="translate(28.86454514119408 149.85922553976687) rotate(383.8539049654353)"><path class="outline" fill="#A5ABB6" stroke="none" d="M 5.987513214418485,-24.277555179777966 L 6.953439040707552,-24.018736134675446 A 46.435796868317084 46.435796868317084 0 0 1 22.61797364716578,-48.11516002669473 L 21.989385298919345,-48.89289821429312 A 47.435796868317084 47.435796868317084 0 0 0 5.987513214418485,-24.277555179777966 Z M 76.84300271865074,-52.291111596926555 L 76.31521505887929,-51.441735245599894 A 46.435796868317084 46.435796868317084 0 0 1 94.83413271701139,-29.462996028071313 L 92.05434894337012,-28.33481068345781 L 97.9298624833831,-23.16486478034393 L 98.54051108186641,-30.96724315422265 L 95.76072730822514,-29.839057809609148 A 47.435796868317084 47.435796868317084 0 0 0 76.84300271865074,-52.291111596926555"/><text text-anchor="middle" pointer-events="none" font-size="8px" fill="#000000" x="48.90483837217633" y="-55.84625597745411" font-family="sans-serif">FIRST_CLASS</text></g><g class="relationship" transform="translate(28.556426573469597 43.19137047503293) rotate(340.3358247057389)"><path class="outline" fill="#A5ABB6" stroke="none" d="M 24.018736134675446,6.953439040707552 L 24.277555179777966,5.987513214418485 A 107.23642832044865 107.23642832044865 0 0 0 28.142722454834125,6.946627095050957 L 27.919946826465942,7.921496839891347 A 108.23642832044865 108.23642832044865 0 0 1 24.018736134675446,6.953439040707552 Z M 72.79525762614747,8.631381020263774 L 72.60342874939634,7.649952631615676 A 107.23642832044865 107.23642832044865 0 0 0 76.4969989781191,6.813574502902166 L 75.812587508899,3.892687490229475 L 83.42647058589205,5.703428910167406 L 77.40954760374588,10.708090519799088 L 76.72513613452578,7.787203507126397 A 108.23642832044865 108.23642832044865 0 0 1 72.79525762614747,8.631381020263774"/><text text-anchor="middle" pointer-events="none" font-size="8px" fill="#000000" x="50.32831186572565" y="13.128028345438494" font-family="sans-serif">BUSINESS</text></g><g class="relationship" transform="translate(28.556426573469597 43.19137047503293) rotate(340.3358247057389)"><path class="outline" fill="#A5ABB6" stroke="none" d="M 24.018736134675446,-6.953439040707552 L 24.277555179777966,-5.987513214418485 A 107.23642832044865 107.23642832044865 0 0 1 28.142722454834093,-6.946627095050957 L 27.919946826465914,-7.921496839891347 A 108.23642832044865 108.23642832044865 0 0 0 24.018736134675446,-6.953439040707552 Z M 72.79525762614745,-8.631381020263774 L 72.60342874939631,-7.649952631615676 A 107.23642832044865 107.23642832044865 0 0 1 76.4969989781191,-6.813574502902166 L 75.812587508899,-3.892687490229475 L 83.42647058589205,-5.703428910167406 L 77.40954760374588,-10.708090519799088 L 76.72513613452578,-7.787203507126397 A 108.23642832044865 108.23642832044865 0 0 0 72.79525762614745,-8.631381020263774"/><text text-anchor="middle" pointer-events="none" font-size="8px" fill="#000000" x="50.328311865725624" y="-7.128028345438494" font-family="sans-serif">BUSINESS</text></g><g class="relationship" transform="translate(28.556426573469597 43.19137047503293) rotate(340.3358247057389)"><path class="outline" fill="#A5ABB6" stroke="none" d="M 17.324116139070416,-18.031222920256962 L 18.031222920256962,-17.324116139070416 A 48.08490477289641 48.08490477289641 0 0 1 23.286297824990317,-21.869296530394763 L 22.688478458004813,-22.67092737090494 A 49.08490477289641 49.08490477289641 0 0 0 17.324116139070416,-18.031222920256962 Z M 77.81420876783824,-25.091667646417598 L 77.28895922871327,-24.240719397903618 A 48.08490477289641 48.08490477289641 0 0 1 82.92222320321967,-20.173679437740226 L 80.99501726252602,-17.874575859787488 L 88.60799920855834,-16.060049505780476 L 85.49183112414455,-23.23915087501054 L 83.5646251834509,-20.940047297057802 A 49.08490477289641 49.08490477289641 0 0 0 77.81420876783824,-25.091667646417598"/><text text-anchor="middle" pointer-events="none" font-size="8px" fill="#000000" x="49.90092675603865" y="-28.861081768851683" font-family="sans-serif">FIRST_CLASS</text></g><g class="relationship" transform="translate(28.556426573469597 43.19137047503293) rotate(340.3358247057389)"><path class="outline" fill="#A5ABB6" stroke="none" d="M 5.987513214418485,-24.277555179777966 L 6.953439040707552,-24.018736134675446 A 46.669159153099635 46.669159153099635 0 0 1 22.816714263022988,-48.3329313182823 L 22.19069760823357,-49.11274100527411 A 47.669159153099635 47.669159153099635 0 0 0 5.987513214418485,-24.277555179777966 Z M 77.07765053250759,-52.49949684285526 L 76.55225285779326,-51.64864004914391 A 46.669159153099635 46.669159153099635 0 0 1 95.28438541850849,-29.469127026238024 L 92.5040481864574,-28.342306332396074 L 98.37702324281489,-23.16947693375912 L 98.99150172790996,-30.971554618027287 L 96.21116449585887,-29.844733924185338 A 47.669159153099635 47.669159153099635 0 0 0 77.07765053250759,-52.49949684285526"/><text text-anchor="middle" pointer-events="none" font-size="8px" fill="#000000" x="49.127374682798106" y="-56.01948754635328" font-family="sans-serif">FIRST_CLASS</text></g></g><g class="layer nodes"><g class="node" transform="translate(130.03876147283708,6.927005451194436)"><circle class="outline" cx="0" cy="0" r="25" fill="#F79767" stroke="#f36924" stroke-width="2px"/><text text-anchor="middle" pointer-events="none" font-family="sans-serif" dy="1.5625" font-size="25" fill="#FFFFFF"/><text text-anchor="middle" pointer-events="none" y="5" font-size="10px" fill="#FFFFFF" font-family="sans-serif"> LAX</text></g><g class="node" transform="translate(127.02766042518583,193.26468292737266)"><circle class="outline" cx="0" cy="0" r="25" fill="#F79767" stroke="#f36924" stroke-width="2px"/><text text-anchor="middle" pointer-events="none" font-family="sans-serif" dy="1.5625" font-size="25" fill="#FFFFFF"/><text text-anchor="middle" pointer-events="none" y="5" font-size="10px" fill="#FFFFFF" font-family="sans-serif"> DAY</text></g><g class="node" transform="translate(28.556426573469597,43.19137047503293)"><circle class="outline" cx="0" cy="0" r="25" fill="#F79767" stroke="#f36924" stroke-width="2px"/><text text-anchor="middle" pointer-events="none" font-family="sans-serif" dy="1.5625" font-size="25" fill="#FFFFFF"/><text text-anchor="middle" pointer-events="none" y="5" font-size="10px" fill="#FFFFFF" font-family="sans-serif"> ORD</text></g><g class="node" transform="translate(28.86454514119408,149.85922553976687)"><circle class="outline" cx="0" cy="0" r="25" fill="#F79767" stroke="#f36924" stroke-width="2px"/><text text-anchor="middle" pointer-events="none" font-family="sans-serif" dy="1.5625" font-size="25" fill="#FFFFFF"/><text text-anchor="middle" pointer-events="none" y="5" font-size="10px" fill="#FFFFFF" font-family="sans-serif"> MSP</text></g></g></svg>