<svg xmlns="http://www.w3.org/2000/svg" width="487.8619384765625" height="334.72845458984375" viewBox="-116.16629028320312 -77.376708984375 487.8619384765625 334.72845458984375"><title>Neo4j Graph Visualization</title><desc>Created using Neo4j (http://www.neo4j.com/)</desc><g class="layer relationships"><g class="relationship" transform="translate(232.04632701957294 104.72625679109285) rotate(426.55467073960216)"><path class="outline" fill="#A5ABB6" stroke="none" d="M 25 0.5 L 32.35650102575571 0.5 L 32.35650102575571 -0.5 L 25 -0.5 Z M 77.3565010257557 0.5 L 84.71300205151142 0.5 L 84.71300205151142 3.5 L 91.71300205151142 0 L 84.71300205151142 -3.5 L 84.71300205151142 -0.5 L 77.3565010257557 -0.5 Z"/><text text-anchor="middle" pointer-events="none" font-size="8px" fill="#000000" x="54.85650102575571" y="3" font-family="sans-serif">ACTED_IN</text></g><g class="relationship" transform="translate(232.04632701957294 104.72625679109285) rotate(353.0381086139205)"><path class="outline" fill="#A5ABB6" stroke="none" d="M 25 0.5 L 29.735597969286495 0.5 L 29.735597969286495 -0.5 L 25 -0.5 Z M 74.73559796928649 0.5 L 79.47119593857299 0.5 L 79.47119593857299 3.5 L 86.47119593857299 0 L 79.47119593857299 -3.5 L 79.47119593857299 -0.5 L 74.73559796928649 -0.5 Z"/><text text-anchor="middle" pointer-events="none" font-size="8px" fill="#000000" x="52.235597969286495" y="3" font-family="sans-serif">ACTED_IN</text></g><g class="relationship" transform="translate(232.04632701957294 104.72625679109285) rotate(189.25362113572328)"><path class="outline" fill="#A5ABB6" stroke="none" d="M 25 0.5 L 27.4374970292328 0.5 L 27.4374970292328 -0.5 L 25 -0.5 Z M 62.4374970292328 0.5 L 64.8749940584656 0.5 L 64.8749940584656 3.5 L 71.8749940584656 0 L 64.8749940584656 -3.5 L 64.8749940584656 -0.5 L 62.4374970292328 -0.5 Z"/><text text-anchor="middle" pointer-events="none" font-size="8px" fill="#000000" x="44.9374970292328" y="3" transform="rotate(180 44.9374970292328 0)" font-family="sans-serif">ACTE…</text></g><g class="relationship" transform="translate(232.04632701957294 104.72625679109285) rotate(214.52958016557142)"><path class="outline" fill="#A5ABB6" stroke="none" d="M 25 0.5 L 39.474019142802646 0.5 L 39.474019142802646 -0.5 L 25 -0.5 Z M 84.47401914280265 0.5 L 98.94803828560529 0.5 L 98.94803828560529 3.5 L 105.94803828560529 0 L 98.94803828560529 -3.5 L 98.94803828560529 -0.5 L 84.47401914280265 -0.5 Z"/><text text-anchor="middle" pointer-events="none" font-size="8px" fill="#000000" x="61.974019142802646" y="3" transform="rotate(180 61.974019142802646 0)" font-family="sans-serif">ACTED_IN</text></g><g class="relationship" transform="translate(90.16838547056412 -48.376705750524366) rotate(431.4069655305056)"><path class="outline" fill="#A5ABB6" stroke="none" d="M 25 0.5 L 46.549030818524386 0.5 L 46.549030818524386 -0.5 L 25 -0.5 Z M 91.54903081852439 0.5 L 113.09806163704877 0.5 L 113.09806163704877 3.5 L 120.09806163704877 0 L 113.09806163704877 -3.5 L 113.09806163704877 -0.5 L 91.54903081852439 -0.5 Z"/><text text-anchor="middle" pointer-events="none" font-size="8px" fill="#000000" x="69.04903081852439" y="3" font-family="sans-serif">ACTED_IN</text></g><g class="relationship" transform="translate(90.16838547056412 -48.376705750524366) rotate(426.68251850800334)"><path class="outline" fill="#A5ABB6" stroke="none" d="M 25 0.5 L 26.946351158199036 0.5 L 26.946351158199036 -0.5 L 25 -0.5 Z M 51.946351158199036 0.5 L 53.89270231639807 0.5 L 53.89270231639807 3.5 L 60.89270231639807 0 L 53.89270231639807 -3.5 L 53.89270231639807 -0.5 L 51.946351158199036 -0.5 Z"/><text text-anchor="middle" pointer-events="none" font-size="8px" fill="#000000" x="39.446351158199036" y="3" font-family="sans-serif">AC…</text></g><g class="relationship" transform="translate(211.01394705641616 -15.753699268589266) rotate(485.4115921440299)"><path class="outline" fill="#A5ABB6" stroke="none" d="M 25 0.5 L 38.356206438476235 0.5 L 38.356206438476235 -0.5 L 25 -0.5 Z M 83.35620643847624 0.5 L 96.71241287695247 0.5 L 96.71241287695247 3.5 L 103.71241287695247 0 L 96.71241287695247 -3.5 L 96.71241287695247 -0.5 L 83.35620643847624 -0.5 Z"/><text text-anchor="middle" pointer-events="none" font-size="8px" fill="#000000" x="60.856206438476235" y="3" transform="rotate(180 60.856206438476235 0)" font-family="sans-serif">ACTED_IN</text></g><g class="relationship" transform="translate(211.01394705641616 -15.753699268589266) rotate(511.9603678396331)"><path class="outline" fill="#A5ABB6" stroke="none" d="M 25 0.5 L 25.198274226005914 0.5 L 25.198274226005914 -0.5 L 25 -0.5 Z M 66.1982742260059 0.5 L 66.39654845201183 0.5 L 66.39654845201183 3.5 L 73.39654845201183 0 L 66.39654845201183 -3.5 L 66.39654845201183 -0.5 L 66.1982742260059 -0.5 Z"/><text text-anchor="middle" pointer-events="none" font-size="8px" fill="#000000" x="45.698274226005914" y="3" transform="rotate(180 45.698274226005914 0)" font-family="sans-serif">ACTED…</text></g><g class="relationship" transform="translate(31.55117856626413 109.44313075538967) rotate(536.4716633538723)"><path class="outline" fill="#A5ABB6" stroke="none" d="M 25 0.5 L 33.47146377775215 0.5 L 33.47146377775215 -0.5 L 25 -0.5 Z M 78.47146377775215 0.5 L 86.9429275555043 0.5 L 86.9429275555043 3.5 L 93.9429275555043 0 L 86.9429275555043 -3.5 L 86.9429275555043 -0.5 L 78.47146377775215 -0.5 Z"/><text text-anchor="middle" pointer-events="none" font-size="8px" fill="#000000" x="55.97146377775215" y="3" transform="rotate(180 55.97146377775215 0)" font-family="sans-serif">ACTED_IN</text></g><g class="relationship" transform="translate(31.55117856626413 109.44313075538967) rotate(226.8460233486444)"><path class="outline" fill="#A5ABB6" stroke="none" d="M 25 0.5 L 34.040321394693734 0.5 L 34.040321394693734 -0.5 L 25 -0.5 Z M 79.04032139469373 0.5 L 88.08064278938747 0.5 L 88.08064278938747 3.5 L 95.08064278938747 0 L 88.08064278938747 -3.5 L 88.08064278938747 -0.5 L 79.04032139469373 -0.5 Z"/><text text-anchor="middle" pointer-events="none" font-size="8px" fill="#000000" x="56.540321394693734" y="3" transform="rotate(180 56.540321394693734 0)" font-family="sans-serif">ACTED_IN</text></g><g class="relationship" transform="translate(31.55117856626413 109.44313075538967) rotate(439.66322787443033)"><path class="outline" fill="#A5ABB6" stroke="none" d="M 25 0.5 L 34.435156411015576 0.5 L 34.435156411015576 -0.5 L 25 -0.5 Z M 79.43515641101558 0.5 L 88.87031282203115 0.5 L 88.87031282203115 3.5 L 95.87031282203115 0 L 88.87031282203115 -3.5 L 88.87031282203115 -0.5 L 79.43515641101558 -0.5 Z"/><text text-anchor="middle" pointer-events="none" font-size="8px" fill="#000000" x="56.935156411015576" y="3" font-family="sans-serif">ACTED_IN</text></g><g class="relationship" transform="translate(31.55117856626413 109.44313075538967) rotate(486.6018432511576)"><path class="outline" fill="#A5ABB6" stroke="none" d="M 25 0.5 L 34.04991875330419 0.5 L 34.04991875330419 -0.5 L 25 -0.5 Z M 79.04991875330418 0.5 L 88.09983750660838 0.5 L 88.09983750660838 3.5 L 95.09983750660838 0 L 88.09983750660838 -3.5 L 88.09983750660838 -0.5 L 79.04991875330418 -0.5 Z"/><text text-anchor="middle" pointer-events="none" font-size="8px" fill="#000000" x="56.54991875330419" y="3" transform="rotate(180 56.54991875330419 0)" font-family="sans-serif">ACTED_IN</text></g><g class="relationship" transform="translate(31.55117856626413 109.44313075538967) rotate(349.04839666533474)"><path class="outline" fill="#A5ABB6" stroke="none" d="M 25 0.5 L 27.413193588942676 0.5 L 27.413193588942676 -0.5 L 25 -0.5 Z M 72.41319358894268 0.5 L 74.82638717788535 0.5 L 74.82638717788535 3.5 L 81.82638717788535 0 L 74.82638717788535 -3.5 L 74.82638717788535 -0.5 L 72.41319358894268 -0.5 Z"/><text text-anchor="middle" pointer-events="none" font-size="8px" fill="#000000" x="49.913193588942676" y="3" font-family="sans-serif">ACTED_IN</text></g><g class="relationship" transform="translate(31.55117856626413 109.44313075538967) rotate(319.5569080993989)"><path class="outline" fill="#A5ABB6" stroke="none" d="M 25 0.5 L 34.84729549919735 0.5 L 34.84729549919735 -0.5 L 25 -0.5 Z M 79.84729549919734 0.5 L 89.6945909983947 0.5 L 89.6945909983947 3.5 L 96.6945909983947 0 L 89.6945909983947 -3.5 L 89.6945909983947 -0.5 L 79.84729549919734 -0.5 Z"/><text text-anchor="middle" pointer-events="none" font-size="8px" fill="#000000" x="57.34729549919735" y="3" font-family="sans-serif">ACTED_IN</text></g></g><g class="layer nodes"><g class="node" transform="translate(232.04632701957294,104.72625679109285)"><circle class="outline" cx="0" cy="0" r="25" fill="#57C7E3" stroke="#23b3d7" stroke-width="2px"/><text text-anchor="middle" pointer-events="none" font-family="sans-serif" dy="1.5625" font-size="25" fill="#2A2C34"/><text text-anchor="middle" pointer-events="none" font-family="sans-serif" dy="1.5625" font-size="25" fill="#2A2C34"/><text text-anchor="middle" pointer-events="none" x="0" y="0" font-size="10px" fill="#2A2C34" font-family="sans-serif"> Hugo</text><text text-anchor="middle" pointer-events="none" x="0" y="10" font-size="10px" fill="#2A2C34" font-family="sans-serif"> Weaving</text></g><g class="node" transform="translate(278.48337768641056,211.803449382427)"><circle class="outline" cx="0" cy="0" r="25" fill="#F79767" stroke="#f36924" stroke-width="2px"/><text text-anchor="middle" pointer-events="none" font-family="sans-serif" dy="1.5625" font-size="25" fill="#FFFFFF"/><text text-anchor="middle" pointer-events="none" font-family="sans-serif" dy="1.5625" font-size="25" fill="#FFFFFF"/><text text-anchor="middle" pointer-events="none" x="0" y="0" font-size="10px" fill="#FFFFFF" font-family="sans-serif"> Cloud</text><text text-anchor="middle" pointer-events="none" x="0" y="10" font-size="10px" fill="#FFFFFF" font-family="sans-serif"> Atlas</text></g><g class="node" transform="translate(342.695644707393,91.21492750061952)"><circle class="outline" cx="0" cy="0" r="25" fill="#F79767" stroke="#f36924" stroke-width="2px"/><text text-anchor="middle" pointer-events="none" font-family="sans-serif" dy="1.5625" font-size="25" fill="#FFFFFF"/><text text-anchor="middle" pointer-events="none" font-family="sans-serif" dy="1.5625" font-size="25" fill="#FFFFFF"/><text text-anchor="middle" pointer-events="none" x="0" y="0" font-size="10px" fill="#FFFFFF" font-family="sans-serif"> V for</text><text text-anchor="middle" pointer-events="none" x="0" y="10" font-size="10px" fill="#FFFFFF" font-family="sans-serif"> Vendetta</text></g><g class="node" transform="translate(136.4320442221192,89.1482787786457)"><circle class="outline" cx="0" cy="0" r="25" fill="#F79767" stroke="#f36924" stroke-width="2px"/><text text-anchor="middle" pointer-events="none" font-family="sans-serif" dy="1.5625" font-size="25" fill="#FFFFFF"/><text text-anchor="middle" pointer-events="none" font-family="sans-serif" dy="1.5625" font-size="25" fill="#FFFFFF"/><text text-anchor="middle" pointer-events="none" font-family="sans-serif" dy="1.5625" font-size="25" fill="#FFFFFF"/><text text-anchor="middle" pointer-events="none" x="0" y="-5" font-size="10px" fill="#FFFFFF" font-family="sans-serif"> The</text><text text-anchor="middle" pointer-events="none" x="0" y="5" font-size="10px" fill="#FFFFFF" font-family="sans-serif"> Matrix</text><text text-anchor="middle" pointer-events="none" x="0" y="15" font-size="10px" fill="#FFFFFF" font-family="sans-serif"> Revol…</text></g><g class="node" transform="translate(124.16692543033894,30.500766266629995)"><circle class="outline" cx="0" cy="0" r="25" fill="#F79767" stroke="#f36924" stroke-width="2px"/><text text-anchor="middle" pointer-events="none" font-family="sans-serif" dy="1.5625" font-size="25" fill="#FFFFFF"/><text text-anchor="middle" pointer-events="none" font-family="sans-serif" dy="1.5625" font-size="25" fill="#FFFFFF"/><text text-anchor="middle" pointer-events="none" font-family="sans-serif" dy="1.5625" font-size="25" fill="#FFFFFF"/><text text-anchor="middle" pointer-events="none" x="0" y="-5" font-size="10px" fill="#FFFFFF" font-family="sans-serif"> The</text><text text-anchor="middle" pointer-events="none" x="0" y="5" font-size="10px" fill="#FFFFFF" font-family="sans-serif"> Matrix</text><text text-anchor="middle" pointer-events="none" x="0" y="15" font-size="10px" fill="#FFFFFF" font-family="sans-serif"> Reloa…</text></g><g class="node" transform="translate(90.16838547056412,-48.376705750524366)"><circle class="outline" cx="0" cy="0" r="25" fill="#57C7E3" stroke="#23b3d7" stroke-width="2px"/><text text-anchor="middle" pointer-events="none" font-family="sans-serif" dy="1.5625" font-size="25" fill="#2A2C34"/><text text-anchor="middle" pointer-events="none" x="0" y="5" font-size="10px" fill="#2A2C34" font-family="sans-serif"> Laurence</text></g><g class="node" transform="translate(211.01394705641616,-15.753699268589266)"><circle class="outline" cx="0" cy="0" r="25" fill="#57C7E3" stroke="#23b3d7" stroke-width="2px"/><text text-anchor="middle" pointer-events="none" font-family="sans-serif" dy="1.5625" font-size="25" fill="#2A2C34"/><text text-anchor="middle" pointer-events="none" x="0" y="5" font-size="10px" fill="#2A2C34" font-family="sans-serif"> Carrie-A…</text></g><g class="node" transform="translate(31.55117856626413,109.44313075538967)"><circle class="outline" cx="0" cy="0" r="25" fill="#57C7E3" stroke="#23b3d7" stroke-width="2px"/><text text-anchor="middle" pointer-events="none" font-family="sans-serif" dy="1.5625" font-size="25" fill="#2A2C34"/><text text-anchor="middle" pointer-events="none" font-family="sans-serif" dy="1.5625" font-size="25" fill="#2A2C34"/><text text-anchor="middle" pointer-events="none" x="0" y="0" font-size="10px" fill="#2A2C34" font-family="sans-serif"> Keanu</text><text text-anchor="middle" pointer-events="none" x="0" y="10" font-size="10px" fill="#2A2C34" font-family="sans-serif"> Reeves</text></g><g class="node" transform="translate(-87.16629073274875,116.76313749800121)"><circle class="outline" cx="0" cy="0" r="25" fill="#F79767" stroke="#f36924" stroke-width="2px"/><text text-anchor="middle" pointer-events="none" font-family="sans-serif" dy="1.5625" font-size="25" fill="#FFFFFF"/><text text-anchor="middle" pointer-events="none" x="0" y="5" font-size="10px" fill="#FFFFFF" font-family="sans-serif"> Someth…</text></g><g class="node" transform="translate(-50.57933813101051,21.842109073270223)"><circle class="outline" cx="0" cy="0" r="25" fill="#F79767" stroke="#f36924" stroke-width="2px"/><text text-anchor="middle" pointer-events="none" font-family="sans-serif" dy="1.5625" font-size="25" fill="#FFFFFF"/><text text-anchor="middle" pointer-events="none" font-family="sans-serif" dy="1.5625" font-size="25" fill="#FFFFFF"/><text text-anchor="middle" pointer-events="none" x="0" y="0" font-size="10px" fill="#FFFFFF" font-family="sans-serif"> The</text><text text-anchor="middle" pointer-events="none" x="0" y="10" font-size="10px" fill="#FFFFFF" font-family="sans-serif"> Replac…</text></g><g class="node" transform="translate(53.239377605454585,228.35172819111813)"><circle class="outline" cx="0" cy="0" r="25" fill="#F79767" stroke="#f36924" stroke-width="2px"/><text text-anchor="middle" pointer-events="none" font-family="sans-serif" dy="1.5625" font-size="25" fill="#FFFFFF"/><text text-anchor="middle" pointer-events="none" font-family="sans-serif" dy="1.5625" font-size="25" fill="#FFFFFF"/><text text-anchor="middle" pointer-events="none" x="0" y="0" font-size="10px" fill="#FFFFFF" font-family="sans-serif"> Johnny</text><text text-anchor="middle" pointer-events="none" x="0" y="10" font-size="10px" fill="#FFFFFF" font-family="sans-serif"> Mnem…</text></g><g class="node" transform="translate(-40.058433849790006,205.85907538456522)"><circle class="outline" cx="0" cy="0" r="25" fill="#F79767" stroke="#f36924" stroke-width="2px"/><text text-anchor="middle" pointer-events="none" font-family="sans-serif" dy="1.5625" font-size="25" fill="#FFFFFF"/><text text-anchor="middle" pointer-events="none" font-family="sans-serif" dy="1.5625" font-size="25" fill="#FFFFFF"/><text text-anchor="middle" pointer-events="none" font-family="sans-serif" dy="1.5625" font-size="25" fill="#FFFFFF"/><text text-anchor="middle" pointer-events="none" x="0" y="-5" font-size="10px" fill="#FFFFFF" font-family="sans-serif"> The</text><text text-anchor="middle" pointer-events="none" x="0" y="5" font-size="10px" fill="#FFFFFF" font-family="sans-serif"> Devil's</text><text text-anchor="middle" pointer-events="none" x="0" y="15" font-size="10px" fill="#FFFFFF" font-family="sans-serif"> Advoc…</text></g></g></svg>