<svg xmlns="http://www.w3.org/2000/svg" width="284.14801025390625" height="284.0292663574219" viewBox="-48.45097732543945 -47.527000427246094 284.14801025390625 284.0292663574219"><title>Neo4j Graph Visualization</title><desc>Created using Neo4j (http://www.neo4j.com/)</desc><g class="layer relationships"><g class="relationship" transform="translate(143.40757481022297 201.18027050701605) rotate(244.77418142111958)"><path class="outline" fill="#A5ABB6" stroke="none" d="M 25 0.5 L 34.19237040542194 0.5 L 34.19237040542194 -0.5 L 25 -0.5 Z M 79.19237040542194 0.5 L 88.38474081084388 0.5 L 88.38474081084388 3.5 L 95.38474081084388 0 L 88.38474081084388 -3.5 L 88.38474081084388 -0.5 L 79.19237040542194 -0.5 Z"/><text text-anchor="middle" pointer-events="none" font-size="8px" fill="#000000" x="56.69237040542194" y="3" transform="rotate(180 56.69237040542194 0)" font-family="sans-serif">ACTED_IN</text></g><g class="relationship" transform="translate(201.9238647078808 141.6164803800848) rotate(204.19313889509414)"><path class="outline" fill="#A5ABB6" stroke="none" d="M 25 0.5 L 39.19864484665968 0.5 L 39.19864484665968 -0.5 L 25 -0.5 Z M 74.19864484665968 0.5 L 88.39728969331937 0.5 L 88.39728969331937 3.5 L 95.39728969331937 0 L 88.39728969331937 -3.5 L 88.39728969331937 -0.5 L 74.19864484665968 -0.5 Z"/><text text-anchor="middle" pointer-events="none" font-size="8px" fill="#000000" x="56.69864484665968" y="3" transform="rotate(180 56.69864484665968 0)" font-family="sans-serif">WROTE</text></g><g class="relationship" transform="translate(206.69702919315907 54.577245716380155) rotate(521.7902723898839)"><path class="outline" fill="#A5ABB6" stroke="none" d="M 25 0.5 L 34.318754755193964 0.5 L 34.318754755193964 -0.5 L 25 -0.5 Z M 79.31875475519396 0.5 L 88.63750951038793 0.5 L 88.63750951038793 3.5 L 95.63750951038793 0 L 88.63750951038793 -3.5 L 88.63750951038793 -0.5 L 79.31875475519396 -0.5 Z"/><text text-anchor="middle" pointer-events="none" font-size="8px" fill="#000000" x="56.818754755193964" y="3" transform="rotate(180 56.818754755193964 0)" font-family="sans-serif">ACTED_IN</text></g><g class="relationship" transform="translate(143.50557501994808 -16.385798114791463) rotate(475.31732679668323)"><path class="outline" fill="#A5ABB6" stroke="none" d="M 25 0.5 L 34.10366381328582 0.5 L 34.10366381328582 -0.5 L 25 -0.5 Z M 79.10366381328582 0.5 L 88.20732762657164 0.5 L 88.20732762657164 3.5 L 95.20732762657164 0 L 88.20732762657164 -3.5 L 88.20732762657164 -0.5 L 79.10366381328582 -0.5 Z"/><text text-anchor="middle" pointer-events="none" font-size="8px" fill="#000000" x="56.60366381328582" y="3" transform="rotate(180 56.60366381328582 0)" font-family="sans-serif">ACTED_IN</text></g><g class="relationship" transform="translate(47.24805700529521 -18.5269996287223) rotate(427.9618751067693)"><path class="outline" fill="#A5ABB6" stroke="none" d="M 25 0.5 L 33.76852861642368 0.5 L 33.76852861642368 -0.5 L 25 -0.5 Z M 78.76852861642368 0.5 L 87.53705723284736 0.5 L 87.53705723284736 3.5 L 94.53705723284736 0 L 87.53705723284736 -3.5 L 87.53705723284736 -0.5 L 78.76852861642368 -0.5 Z"/><text text-anchor="middle" pointer-events="none" font-size="8px" fill="#000000" x="56.26852861642368" y="3" font-family="sans-serif">ACTED_IN</text></g><g class="relationship" transform="translate(-19.450977549227137 49.352807424225894) rotate(381.0458019990457)"><path class="outline" fill="#A5ABB6" stroke="none" d="M 25 0.5 L 33.762617633522545 0.5 L 33.762617633522545 -0.5 L 25 -0.5 Z M 78.76261763352255 0.5 L 87.52523526704509 0.5 L 87.52523526704509 3.5 L 94.52523526704509 0 L 87.52523526704509 -3.5 L 87.52523526704509 -0.5 L 78.76261763352255 -0.5 Z"/><text text-anchor="middle" pointer-events="none" font-size="8px" fill="#000000" x="56.262617633522545" y="3" font-family="sans-serif">ACTED_IN</text></g><g class="relationship" transform="translate(-15.615781733148141 145.5696263901886) rotate(333.67581500424194)"><path class="outline" fill="#A5ABB6" stroke="none" d="M 25 0.5 L 33.08982943273299 0.5 L 33.08982943273299 -0.5 L 25 -0.5 Z M 80.08982943273298 0.5 L 88.17965886546598 0.5 L 88.17965886546598 3.5 L 95.17965886546598 0 L 88.17965886546598 -3.5 L 88.17965886546598 -0.5 L 80.08982943273298 -0.5 Z"/><text text-anchor="middle" pointer-events="none" font-size="8px" fill="#000000" x="56.58982943273299" y="3" font-family="sans-serif">DIRECTED</text></g><g class="relationship" transform="translate(56.46576297380065 207.50226096189095) rotate(287.18498792431603)"><path class="outline" fill="#A5ABB6" stroke="none" d="M 25 0.5 L 39.30541244578943 0.5 L 39.30541244578943 -0.5 L 25 -0.5 Z M 74.30541244578943 0.5 L 88.61082489157886 0.5 L 88.61082489157886 3.5 L 95.61082489157886 0 L 88.61082489157886 -3.5 L 88.61082489157886 -0.5 L 74.30541244578943 -0.5 Z"/><text text-anchor="middle" pointer-events="none" font-size="8px" fill="#000000" x="56.80541244578943" y="3" font-family="sans-serif">WROTE</text></g></g><g class="layer nodes"><g class="node" transform="translate(92.10116559283092,92.27600891312079)"><circle class="outline" cx="0" cy="0" r="25" fill="#F79767" stroke="#f36924" stroke-width="2px"/><text text-anchor="middle" pointer-events="none" font-family="sans-serif" dy="1.5625" font-size="25" fill="#FFFFFF"/><text text-anchor="middle" pointer-events="none" font-family="sans-serif" dy="1.5625" font-size="25" fill="#FFFFFF"/><text text-anchor="middle" pointer-events="none" x="0" y="0" font-size="10px" fill="#FFFFFF" font-family="sans-serif"> Captain</text><text text-anchor="middle" pointer-events="none" x="0" y="10" font-size="10px" fill="#FFFFFF" font-family="sans-serif"> America:</text></g><g class="node" transform="translate(143.40757481022297,201.18027050701605)"><circle class="outline" cx="0" cy="0" r="25" fill="#57C7E3" stroke="#23b3d7" stroke-width="2px"/><text text-anchor="middle" pointer-events="none" font-family="sans-serif" dy="1.5625" font-size="25" fill="#2A2C34"/><text text-anchor="middle" pointer-events="none" font-family="sans-serif" dy="1.5625" font-size="25" fill="#2A2C34"/><text text-anchor="middle" pointer-events="none" x="0" y="0" font-size="10px" fill="#2A2C34" font-family="sans-serif"> Hugo</text><text text-anchor="middle" pointer-events="none" x="0" y="10" font-size="10px" fill="#2A2C34" font-family="sans-serif"> Weaving</text></g><g class="node" transform="translate(201.9238647078808,141.6164803800848)"><circle class="outline" cx="0" cy="0" r="25" fill="#57C7E3" stroke="#23b3d7" stroke-width="2px"/><text text-anchor="middle" pointer-events="none" font-family="sans-serif" dy="1.5625" font-size="25" fill="#2A2C34"/><text text-anchor="middle" pointer-events="none" x="0" y="5" font-size="10px" fill="#2A2C34" font-family="sans-serif"> Christop…</text></g><g class="node" transform="translate(206.69702919315907,54.577245716380155)"><circle class="outline" cx="0" cy="0" r="25" fill="#57C7E3" stroke="#23b3d7" stroke-width="2px"/><text text-anchor="middle" pointer-events="none" font-family="sans-serif" dy="1.5625" font-size="25" fill="#2A2C34"/><text text-anchor="middle" pointer-events="none" x="0" y="5" font-size="10px" fill="#2A2C34" font-family="sans-serif"> Sebasti…</text></g><g class="node" transform="translate(143.50557501994808,-16.385798114791463)"><circle class="outline" cx="0" cy="0" r="25" fill="#57C7E3" stroke="#23b3d7" stroke-width="2px"/><text text-anchor="middle" pointer-events="none" font-family="sans-serif" dy="1.5625" font-size="25" fill="#2A2C34"/><text text-anchor="middle" pointer-events="none" font-family="sans-serif" dy="1.5625" font-size="25" fill="#2A2C34"/><text text-anchor="middle" pointer-events="none" font-family="sans-serif" dy="1.5625" font-size="25" fill="#2A2C34"/><text text-anchor="middle" pointer-events="none" x="0" y="-5" font-size="10px" fill="#2A2C34" font-family="sans-serif"> Tommy</text><text text-anchor="middle" pointer-events="none" x="0" y="5" font-size="10px" fill="#2A2C34" font-family="sans-serif"> Lee</text><text text-anchor="middle" pointer-events="none" x="0" y="15" font-size="10px" fill="#2A2C34" font-family="sans-serif"> Jones</text></g><g class="node" transform="translate(47.24805700529521,-18.5269996287223)"><circle class="outline" cx="0" cy="0" r="25" fill="#57C7E3" stroke="#23b3d7" stroke-width="2px"/><text text-anchor="middle" pointer-events="none" font-family="sans-serif" dy="1.5625" font-size="25" fill="#2A2C34"/><text text-anchor="middle" pointer-events="none" font-family="sans-serif" dy="1.5625" font-size="25" fill="#2A2C34"/><text text-anchor="middle" pointer-events="none" x="0" y="0" font-size="10px" fill="#2A2C34" font-family="sans-serif"> Hayley</text><text text-anchor="middle" pointer-events="none" x="0" y="10" font-size="10px" fill="#2A2C34" font-family="sans-serif"> Atwell</text></g><g class="node" transform="translate(-19.450977549227137,49.352807424225894)"><circle class="outline" cx="0" cy="0" r="25" fill="#57C7E3" stroke="#23b3d7" stroke-width="2px"/><text text-anchor="middle" pointer-events="none" font-family="sans-serif" dy="1.5625" font-size="25" fill="#2A2C34"/><text text-anchor="middle" pointer-events="none" font-family="sans-serif" dy="1.5625" font-size="25" fill="#2A2C34"/><text text-anchor="middle" pointer-events="none" x="0" y="0" font-size="10px" fill="#2A2C34" font-family="sans-serif"> Chris</text><text text-anchor="middle" pointer-events="none" x="0" y="10" font-size="10px" fill="#2A2C34" font-family="sans-serif"> Evans</text></g><g class="node" transform="translate(-15.615781733148141,145.5696263901886)"><circle class="outline" cx="0" cy="0" r="25" fill="#57C7E3" stroke="#23b3d7" stroke-width="2px"/><text text-anchor="middle" pointer-events="none" font-family="sans-serif" dy="1.5625" font-size="25" fill="#2A2C34"/><text text-anchor="middle" pointer-events="none" font-family="sans-serif" dy="1.5625" font-size="25" fill="#2A2C34"/><text text-anchor="middle" pointer-events="none" x="0" y="0" font-size="10px" fill="#2A2C34" font-family="sans-serif"> Joe</text><text text-anchor="middle" pointer-events="none" x="0" y="10" font-size="10px" fill="#2A2C34" font-family="sans-serif"> Johnston</text></g><g class="node" transform="translate(56.46576297380065,207.50226096189095)"><circle class="outline" cx="0" cy="0" r="25" fill="#57C7E3" stroke="#23b3d7" stroke-width="2px"/><text text-anchor="middle" pointer-events="none" font-family="sans-serif" dy="1.5625" font-size="25" fill="#2A2C34"/><text text-anchor="middle" pointer-events="none" font-family="sans-serif" dy="1.5625" font-size="25" fill="#2A2C34"/><text text-anchor="middle" pointer-events="none" x="0" y="0" font-size="10px" fill="#2A2C34" font-family="sans-serif"> Stephen</text><text text-anchor="middle" pointer-events="none" x="0" y="10" font-size="10px" fill="#2A2C34" font-family="sans-serif"> McFeely</text></g></g></svg>